<svg width="35" height="35" viewBox="0 0 35 35" fill="none" xmlns="http://www.w3.org/2000/svg">
<path d="M17.5 2.91675C14.4259 2.91659 11.476 4.12973 9.29138 6.29248C7.10677 8.45524 5.86405 11.3928 5.83331 14.4667C5.83331 22.4584 16.1146 31.3542 16.5521 31.7334C16.8162 31.9594 17.1524 32.0835 17.5 32.0835C17.8476 32.0835 18.1837 31.9594 18.4479 31.7334C18.9583 31.3542 29.1666 22.4584 29.1666 14.4667C29.1359 11.3928 27.8932 8.45524 25.7086 6.29248C23.524 4.12973 20.5741 2.91659 17.5 2.91675ZM17.5 28.6563C15.0646 26.3376 8.74998 19.9063 8.74998 14.4667C8.74998 12.1461 9.67185 9.92051 11.3128 8.27956C12.9537 6.63862 15.1793 5.71675 17.5 5.71675C19.8206 5.71675 22.0462 6.63862 23.6872 8.27956C25.3281 9.92051 26.25 12.1461 26.25 14.4667C26.25 19.8626 19.9354 26.3376 17.5 28.6563Z" fill="white" fill-opacity="0.84"/>
<path d="M17.5001 8.75C16.4906 8.75 15.5037 9.04935 14.6644 9.61021C13.825 10.1711 13.1708 10.9682 12.7844 11.9009C12.3981 12.8336 12.297 13.8598 12.494 14.8499C12.6909 15.8401 13.1771 16.7495 13.8909 17.4634C14.6047 18.1772 15.5142 18.6633 16.5043 18.8603C17.4944 19.0572 18.5207 18.9561 19.4534 18.5698C20.386 18.1835 21.1832 17.5293 21.744 16.6899C22.3049 15.8505 22.6042 14.8637 22.6042 13.8542C22.6042 12.5005 22.0665 11.2022 21.1093 10.245C20.152 9.28776 18.8538 8.75 17.5001 8.75ZM17.5001 16.0417C17.0674 16.0417 16.6445 15.9134 16.2848 15.673C15.925 15.4326 15.6447 15.091 15.4791 14.6913C15.3135 14.2916 15.2702 13.8517 15.3546 13.4274C15.439 13.0031 15.6474 12.6133 15.9533 12.3074C16.2592 12.0014 16.649 11.7931 17.0733 11.7087C17.4976 11.6243 17.9375 11.6676 18.3372 11.8332C18.7369 11.9987 19.0785 12.2791 19.3189 12.6389C19.5593 12.9986 19.6876 13.4215 19.6876 13.8542C19.6876 14.4343 19.4571 14.9907 19.0469 15.401C18.6366 15.8112 18.0802 16.0417 17.5001 16.0417Z" fill="white" fill-opacity="0.84"/>
</svg>
