<svg width="79" height="77" viewBox="0 0 79 77" fill="none" xmlns="http://www.w3.org/2000/svg">
<g clip-path="url(#clip0_128_906)">
<rect width="79" height="77" rx="38.5" fill="#231F20"/>
<path d="M40.0002 40.3333C43.0987 40.3333 46.1277 39.4732 48.7041 37.8616C51.2805 36.25 53.2885 33.9593 54.4743 31.2794C55.66 28.5994 55.9703 25.6504 55.3658 22.8053C54.7613 19.9603 53.2692 17.3469 51.0782 15.2958C48.8871 13.2446 46.0956 11.8477 43.0566 11.2818C40.0175 10.7159 36.8675 11.0064 34.0048 12.1164C31.1421 13.2265 28.6953 15.1064 26.9738 17.5183C25.2523 19.9302 24.3335 22.7659 24.3335 25.6667C24.3335 29.5565 25.9841 33.287 28.9222 36.0376C31.8602 38.7881 35.8451 40.3333 40.0002 40.3333Z" fill="#FDD501"/>
<path d="M63.5002 77.0001C64.5389 77.0001 65.5351 76.6138 66.2697 75.9261C67.0042 75.2385 67.4168 74.3059 67.4168 73.3334C67.4168 66.5262 64.5283 59.9978 59.3867 55.1843C54.245 50.3709 47.2715 47.6667 40.0002 47.6667C32.7288 47.6667 25.7553 50.3709 20.6137 55.1843C15.472 59.9978 12.5835 66.5262 12.5835 73.3334C12.5835 74.3059 12.9961 75.2385 13.7307 75.9261C14.4652 76.6138 15.4614 77.0001 16.5002 77.0001H63.5002Z" fill="#FDD501"/>
</g>
<defs>
<clipPath id="clip0_128_906">
<rect width="79" height="77" rx="38.5" fill="white"/>
</clipPath>
</defs>
</svg>
