<svg width="281" height="334" viewBox="0 0 281 334" fill="none" xmlns="http://www.w3.org/2000/svg">
<path d="M281 6L281 272C281 344.999 244.374 330 13.157 330L13.1571 199.518C13.1572 135.127 13.1572 74.1737 13.1571 49.0002C13.1571 35.601 23.1395 12.3498 58.9459 6.0001L281 6Z" fill="url(#paint0_linear_182_406)"/>
<g filter="url(#filter0_di_182_406)">
<path d="M252.385 0L252.385 236.337C252.385 301.196 218.42 287.87 4 287.87L4.0001 171.938C4.00018 114.728 4.00024 60.5715 4.00015 38.2051C4.00011 26.3001 13.2573 5.64168 46.4625 9.27823e-05L252.385 0Z" fill="white"/>
</g>
<g filter="url(#filter1_ddi_182_406)">
<path d="M94.817 305.695C94.6927 305.263 94.5181 304.882 94.2932 304.55C94.0683 304.213 93.7931 303.929 93.4676 303.698C93.148 303.461 92.781 303.281 92.3667 303.156C91.9584 303.032 91.5056 302.97 91.0084 302.97C90.0792 302.97 89.2625 303.201 88.5581 303.662C87.8598 304.124 87.3153 304.796 86.9246 305.678C86.534 306.554 86.3387 307.625 86.3387 308.891C86.3387 310.158 86.531 311.235 86.9157 312.123C87.3005 313.011 87.845 313.688 88.5493 314.156C89.2536 314.618 90.0851 314.848 91.0439 314.848C91.914 314.848 92.6568 314.694 93.2723 314.387C93.8937 314.073 94.3672 313.632 94.6927 313.064C95.0242 312.496 95.1899 311.824 95.1899 311.049L95.9711 311.164H91.2836V308.27H98.892V310.56C98.892 312.158 98.5546 313.531 97.8799 314.68C97.2052 315.822 96.276 316.704 95.0922 317.325C93.9085 317.941 92.5532 318.249 91.0262 318.249C89.3216 318.249 87.8242 317.873 86.534 317.121C85.2438 316.364 84.2376 315.289 83.5155 313.898C82.7994 312.502 82.4413 310.844 82.4413 308.927C82.4413 307.453 82.6544 306.139 83.0805 304.985C83.5126 303.825 84.1163 302.843 84.8916 302.038C85.6669 301.233 86.5695 300.62 87.5993 300.2C88.6292 299.78 89.7448 299.57 90.9463 299.57C91.9761 299.57 92.9349 299.721 93.8227 300.022C94.7105 300.318 95.4977 300.739 96.1842 301.283C96.8767 301.828 97.4419 302.476 97.8799 303.227C98.3179 303.973 98.599 304.796 98.7233 305.695H94.817ZM101.779 318V299.818H114.031V302.988H105.624V307.32H113.401V310.489H105.624V314.831H114.066V318H101.779ZM133.795 308.909C133.795 310.892 133.419 312.579 132.668 313.969C131.922 315.36 130.904 316.423 129.614 317.157C128.329 317.885 126.885 318.249 125.281 318.249C123.666 318.249 122.216 317.882 120.931 317.148C119.647 316.414 118.632 315.351 117.886 313.961C117.14 312.57 116.767 310.886 116.767 308.909C116.767 306.926 117.14 305.24 117.886 303.849C118.632 302.458 119.647 301.398 120.931 300.67C122.216 299.937 123.666 299.57 125.281 299.57C126.885 299.57 128.329 299.937 129.614 300.67C130.904 301.398 131.922 302.458 132.668 303.849C133.419 305.24 133.795 306.926 133.795 308.909ZM129.898 308.909C129.898 307.625 129.705 306.542 129.321 305.66C128.942 304.778 128.406 304.109 127.714 303.653C127.021 303.198 126.211 302.97 125.281 302.97C124.352 302.97 123.541 303.198 122.849 303.653C122.156 304.109 121.618 304.778 121.233 305.66C120.854 306.542 120.665 307.625 120.665 308.909C120.665 310.193 120.854 311.277 121.233 312.158C121.618 313.04 122.156 313.709 122.849 314.165C123.541 314.621 124.352 314.848 125.281 314.848C126.211 314.848 127.021 314.621 127.714 314.165C128.406 313.709 128.942 313.04 129.321 312.158C129.705 311.277 129.898 310.193 129.898 308.909ZM148.699 305.695C148.575 305.263 148.4 304.882 148.175 304.55C147.95 304.213 147.675 303.929 147.349 303.698C147.03 303.461 146.663 303.281 146.249 303.156C145.84 303.032 145.387 302.97 144.89 302.97C143.961 302.97 143.144 303.201 142.44 303.662C141.742 304.124 141.197 304.796 140.806 305.678C140.416 306.554 140.221 307.625 140.221 308.891C140.221 310.158 140.413 311.235 140.798 312.123C141.182 313.011 141.727 313.688 142.431 314.156C143.135 314.618 143.967 314.848 144.926 314.848C145.796 314.848 146.539 314.694 147.154 314.387C147.776 314.073 148.249 313.632 148.575 313.064C148.906 312.496 149.072 311.824 149.072 311.049L149.853 311.164H145.165V308.27H152.774V310.56C152.774 312.158 152.436 313.531 151.762 314.68C151.087 315.822 150.158 316.704 148.974 317.325C147.79 317.941 146.435 318.249 144.908 318.249C143.203 318.249 141.706 317.873 140.416 317.121C139.126 316.364 138.119 315.289 137.397 313.898C136.681 312.502 136.323 310.844 136.323 308.927C136.323 307.453 136.536 306.139 136.962 304.985C137.394 303.825 137.998 302.843 138.773 302.038C139.549 301.233 140.451 300.62 141.481 300.2C142.511 299.78 143.627 299.57 144.828 299.57C145.858 299.57 146.817 299.721 147.705 300.022C148.592 300.318 149.379 300.739 150.066 301.283C150.759 301.828 151.324 302.476 151.762 303.227C152.2 303.973 152.481 304.796 152.605 305.695H148.699ZM155.661 318V299.818H162.835C164.208 299.818 165.38 300.064 166.35 300.555C167.327 301.04 168.07 301.73 168.579 302.624C169.093 303.511 169.351 304.556 169.351 305.757C169.351 306.965 169.091 308.004 168.57 308.874C168.049 309.738 167.294 310.401 166.306 310.862C165.323 311.324 164.134 311.555 162.737 311.555H157.934V308.465H162.116C162.849 308.465 163.459 308.365 163.944 308.163C164.43 307.962 164.791 307.66 165.027 307.258C165.27 306.855 165.391 306.355 165.391 305.757C165.391 305.154 165.27 304.645 165.027 304.23C164.791 303.816 164.427 303.502 163.935 303.289C163.45 303.07 162.838 302.961 162.098 302.961H159.505V318H155.661ZM165.48 309.726L169.999 318H165.755L161.334 309.726H165.48ZM175.201 318H171.082L177.359 299.818H182.313L188.58 318H184.461L179.907 303.973H179.765L175.201 318ZM174.944 310.853H184.674V313.854H174.944V310.853ZM190.769 318V299.818H202.807V302.988H194.613V307.32H202.008V310.489H194.613V318H190.769ZM209.237 299.818V318H205.393V299.818H209.237Z" fill="white"/>
</g>
<defs>
<filter id="filter0_di_182_406" x="0" y="0" width="256.385" height="297" filterUnits="userSpaceOnUse" color-interpolation-filters="sRGB">
<feFlood flood-opacity="0" result="BackgroundImageFix"/>
<feColorMatrix in="SourceAlpha" type="matrix" values="0 0 0 0 0 0 0 0 0 0 0 0 0 0 0 0 0 0 127 0" result="hardAlpha"/>
<feOffset dy="4"/>
<feGaussianBlur stdDeviation="2"/>
<feComposite in2="hardAlpha" operator="out"/>
<feColorMatrix type="matrix" values="0 0 0 0 0 0 0 0 0 0 0 0 0 0 0 0 0 0 0.25 0"/>
<feBlend mode="normal" in2="BackgroundImageFix" result="effect1_dropShadow_182_406"/>
<feBlend mode="normal" in="SourceGraphic" in2="effect1_dropShadow_182_406" result="shape"/>
<feColorMatrix in="SourceAlpha" type="matrix" values="0 0 0 0 0 0 0 0 0 0 0 0 0 0 0 0 0 0 127 0" result="hardAlpha"/>
<feOffset dy="4"/>
<feGaussianBlur stdDeviation="2"/>
<feComposite in2="hardAlpha" operator="arithmetic" k2="-1" k3="1"/>
<feColorMatrix type="matrix" values="0 0 0 0 0 0 0 0 0 0 0 0 0 0 0 0 0 0 0.25 0"/>
<feBlend mode="normal" in2="shape" result="effect2_innerShadow_182_406"/>
</filter>
<filter id="filter1_ddi_182_406" x="78.4414" y="299.57" width="134.795" height="26.6787" filterUnits="userSpaceOnUse" color-interpolation-filters="sRGB">
<feFlood flood-opacity="0" result="BackgroundImageFix"/>
<feColorMatrix in="SourceAlpha" type="matrix" values="0 0 0 0 0 0 0 0 0 0 0 0 0 0 0 0 0 0 127 0" result="hardAlpha"/>
<feOffset dy="4"/>
<feGaussianBlur stdDeviation="2"/>
<feComposite in2="hardAlpha" operator="out"/>
<feColorMatrix type="matrix" values="0 0 0 0 0 0 0 0 0 0 0 0 0 0 0 0 0 0 0.25 0"/>
<feBlend mode="normal" in2="BackgroundImageFix" result="effect1_dropShadow_182_406"/>
<feColorMatrix in="SourceAlpha" type="matrix" values="0 0 0 0 0 0 0 0 0 0 0 0 0 0 0 0 0 0 127 0" result="hardAlpha"/>
<feOffset dy="4"/>
<feGaussianBlur stdDeviation="2"/>
<feComposite in2="hardAlpha" operator="out"/>
<feColorMatrix type="matrix" values="0 0 0 0 0 0 0 0 0 0 0 0 0 0 0 0 0 0 0.25 0"/>
<feBlend mode="normal" in2="effect1_dropShadow_182_406" result="effect2_dropShadow_182_406"/>
<feBlend mode="normal" in="SourceGraphic" in2="effect2_dropShadow_182_406" result="shape"/>
<feColorMatrix in="SourceAlpha" type="matrix" values="0 0 0 0 0 0 0 0 0 0 0 0 0 0 0 0 0 0 127 0" result="hardAlpha"/>
<feOffset dy="4"/>
<feGaussianBlur stdDeviation="2"/>
<feComposite in2="hardAlpha" operator="arithmetic" k2="-1" k3="1"/>
<feColorMatrix type="matrix" values="0 0 0 0 0 0 0 0 0 0 0 0 0 0 0 0 0 0 0.25 0"/>
<feBlend mode="normal" in2="shape" result="effect3_innerShadow_182_406"/>
</filter>
<linearGradient id="paint0_linear_182_406" x1="147.078" y1="6" x2="147.078" y2="331.272" gradientUnits="userSpaceOnUse">
<stop offset="0.107292" stop-color="#FF89CA"/>
<stop offset="0.3625" stop-color="#FC7CF7" stop-opacity="0.7"/>
<stop offset="1" stop-color="#3D9BF1" stop-opacity="0.99"/>
</linearGradient>
</defs>
</svg>
