<svg width="320" height="347" viewBox="0 0 320 347" fill="none" xmlns="http://www.w3.org/2000/svg">
<path d="M21.8594 276.684C46.7597 259.466 81.2526 264.639 112.276 263.431C153.831 261.807 198.733 242.965 212.367 206.641C225.756 171.035 205.427 131.388 213.142 94.3839C221.347 54.888 265.229 24.7187 308.498 28.8344C307.11 64.1012 329.602 95.8187 341.236 129.424C364.911 197.843 342.95 271.813 321.03 340.723C318.05 350.05 314.58 360.018 306.131 365.757C298.456 370.968 288.333 371.497 278.822 371.761C206.285 373.8 133.706 370.251 61.7406 361.755C41.4122 359.338 18.0223 360.66 7.00088 342.158C-5.3676 321.353 1.36771 290.844 21.8594 276.684Z" fill="url(#paint0_linear_369_300)"/>
<path d="M54.0662 291.07C77.7419 270.756 112.521 274.645 143.462 271.662C184.854 267.66 228.368 244.513 239.553 203.696C250.493 163.672 227.511 121.004 232.654 79.7713C238.124 35.7444 279.883 0.137692 323.356 2.40323C324.377 41.3704 348.991 75.2402 362.911 111.678C391.24 185.912 374.341 268.717 357.115 345.934C354.788 356.355 352.012 367.57 343.93 374.366C336.623 380.483 326.54 381.654 317.07 382.447C244.778 388.526 172.118 388.45 99.6623 382.824C79.2114 381.239 55.944 383.919 43.6571 364.058C29.9416 341.78 34.5951 307.76 54.0662 291.07Z" stroke="#FCEA10" stroke-width="4" stroke-miterlimit="10"/>
<defs>
<linearGradient id="paint0_linear_369_300" x1="0.79623" y1="200.393" x2="351.468" y2="200.393" gradientUnits="userSpaceOnUse">
<stop stop-color="#FFEF26"/>
<stop offset="0.0178316" stop-color="#FFEA21"/>
<stop offset="0.102" stop-color="#FED70F"/>
<stop offset="0.1886" stop-color="#FDCC04"/>
<stop offset="0.2809" stop-color="#FDC800"/>
<stop offset="0.6685" stop-color="#F18F34"/>
<stop offset="0.8876" stop-color="#E95F32"/>
<stop offset="1" stop-color="#E3312D"/>
</linearGradient>
</defs>
</svg>
