<svg width="277" height="110" viewBox="0 0 277 110" fill="none" xmlns="http://www.w3.org/2000/svg">
<path d="M15.4414 89.3828C15.4414 83.2891 15.5586 79.1094 15.793 76.8438L13.5859 76.4531C13.2734 75.2552 13.1172 73.9661 13.1172 72.5859C13.3125 72.3385 13.6771 72.0326 14.2109 71.668C14.7448 71.3034 15.3633 70.9844 16.0664 70.7109C16.7826 70.4375 17.4922 70.3008 18.1953 70.3008C19.9401 70.3008 21.2943 70.6784 22.2578 71.4336C23.2344 72.1888 23.7227 73.4779 23.7227 75.3008C23.7227 76.2122 23.6576 77.612 23.5273 79.5C23.3971 81.375 23.1562 83.6536 22.8047 86.3359C22.4531 89.0182 21.9844 91.8177 21.3984 94.7344L21.7305 94.9297C22.7591 93.5104 23.7487 91.9479 24.6992 90.2422C25.6497 88.5234 26.4049 86.9284 26.9648 85.457L25.2852 85.0469C25.1289 84.1615 25.0508 83.1133 25.0508 81.9023V81.1992C25.5456 80.5742 26.2227 80.0273 27.082 79.5586C27.9544 79.0898 29.0352 78.8555 30.3242 78.8555C31.2487 78.8555 32.0495 79.0312 32.7266 79.3828C33.4036 79.7214 33.9245 80.1966 34.2891 80.8086C34.6536 81.4206 34.8359 82.1237 34.8359 82.918C34.8359 83.5169 34.7448 84.0833 34.5625 84.6172C34.3802 85.138 34.1068 85.6914 33.7422 86.2773C32.8047 87.7617 31.1706 89.8711 28.8398 92.6055C29.6211 93.6992 30.3828 94.6497 31.125 95.457C31.4115 95.3138 31.6784 95.125 31.9258 94.8906C32.1862 94.6562 32.5182 94.3177 32.9219 93.875L33.3516 93.4258L35.7539 95.2422C35.6628 97.5599 35.1615 99.3307 34.25 100.555C33.3516 101.766 32.1602 102.371 30.6758 102.371C29.0482 102.371 27.8242 101.876 27.0039 100.887C26.1836 99.8971 25.5846 98.4974 25.207 96.6875C23.7747 98.237 22.5117 99.5391 21.418 100.594C20.3372 101.635 19.6276 102.234 19.2891 102.391C18.5729 102.391 17.8893 102.306 17.2383 102.137C16.5872 101.967 16.1055 101.701 15.793 101.336C15.6497 99.487 15.5521 97.6576 15.5 95.8477C15.4609 94.0247 15.4414 91.8698 15.4414 89.3828ZM39.6602 95.2031C39.6602 93.0807 39.6862 91.4792 39.7383 90.3984C39.7904 89.3047 39.9271 87.7031 40.1484 85.5938L37.8828 85.3008C37.6094 84.4544 37.4271 83.6992 37.3359 83.0352C37.2578 82.3711 37.2188 81.5117 37.2188 80.457C37.4271 80.2747 37.7721 80.0599 38.2539 79.8125C38.7487 79.5521 39.3346 79.3307 40.0117 79.1484C40.6888 78.9531 41.3724 78.8555 42.0625 78.8555C43.638 78.8555 44.7513 79.194 45.4023 79.8711C46.0664 80.5482 46.3984 81.5638 46.3984 82.918C46.3984 83.6732 46.2878 84.6953 46.0664 85.9844C45.7018 88.0547 45.5195 89.1419 45.5195 89.2461C45.5195 89.3112 45.5651 89.3763 45.6562 89.4414C45.7474 89.4935 45.8451 89.5195 45.9492 89.5195C46.0664 89.5195 46.1445 89.474 46.1836 89.3828C46.7044 87.3125 47.2253 85.5807 47.7461 84.1875C48.2669 82.7943 49.0547 81.5573 50.1094 80.4766C51.1641 79.3958 52.5312 78.8555 54.2109 78.8555C56.2943 78.8555 57.7917 79.4935 58.7031 80.7695C59.6146 82.0326 60.0703 83.6276 60.0703 85.5547C60.0703 87.2734 59.8685 88.9336 59.4648 90.5352C59.0612 92.1237 58.5599 93.7839 57.9609 95.5156C57.987 95.4505 57.8958 95.7044 57.6875 96.2773L57.7266 96.3164L60.5781 95.1445C61.5938 96.0169 62.1862 97.1758 62.3555 98.6211C62.3555 98.7122 62.0625 99.0833 61.4766 99.7344C60.9036 100.385 60.1419 100.991 59.1914 101.551C58.2409 102.111 57.1471 102.391 55.9102 102.391C54.6732 102.391 53.6641 102.059 52.8828 101.395C52.1016 100.73 51.7109 99.5977 51.7109 97.9961C51.7109 96.7201 51.763 95.0143 51.8672 92.8789C51.9714 90.7435 52.0755 89.0247 52.1797 87.7227C51.8411 87.3581 51.4245 87.1628 50.9297 87.1367C50.474 87.7227 49.8034 88.8945 48.918 90.6523C48.0326 92.4102 47.4076 93.7253 47.043 94.5977C47.0169 94.7799 47.0039 94.9557 47.0039 95.125C47.0039 95.776 47.1016 96.6549 47.2969 97.7617C47.4922 98.8555 47.7331 99.8776 48.0195 100.828C47.7852 101.271 47.3034 101.642 46.5742 101.941C45.8451 102.241 44.9466 102.391 43.8789 102.391C42.9154 102.391 42.1406 102.312 41.5547 102.156C40.9818 102 40.5781 101.837 40.3438 101.668C40.1094 101.486 39.9922 101.375 39.9922 101.336C39.9792 101.219 39.9466 100.913 39.8945 100.418C39.8424 99.9102 39.7904 99.207 39.7383 98.3086C39.6862 97.3971 39.6602 96.362 39.6602 95.2031ZM63.8398 90.457C63.8398 88.1003 64.2174 86.056 64.9727 84.3242C65.7279 82.5924 66.8867 81.2513 68.4492 80.3008C70.0117 79.3372 71.9714 78.8555 74.3281 78.8555C76.9323 78.8555 78.9766 79.3438 80.4609 80.3203C81.9453 81.2839 82.9805 82.625 83.5664 84.3438C84.1654 86.0625 84.4648 88.1654 84.4648 90.6523C84.4648 92.9049 84.0677 94.9167 83.2734 96.6875C82.4922 98.4453 81.3073 99.8385 79.7188 100.867C78.1432 101.883 76.2096 102.391 73.918 102.391C70.3763 102.391 67.8112 101.303 66.2227 99.1289C64.6341 96.9414 63.8398 94.0508 63.8398 90.457ZM74.7188 96.668C75.3828 96.668 75.7865 96.6159 75.9297 96.5117C76.2292 95.9909 76.457 95.2552 76.6133 94.3047C76.7695 93.3542 76.8477 92.3255 76.8477 91.2188C76.8477 90.2031 76.7826 89.2526 76.6523 88.3672C76.5221 87.4688 76.3398 86.7656 76.1055 86.2578C75.9622 86.0885 75.6758 85.9648 75.2461 85.8867C74.8164 85.7956 74.3477 85.75 73.8398 85.75C73.1758 85.75 72.7201 85.8216 72.4727 85.9648C71.8216 87.0846 71.4961 88.6406 71.4961 90.6328C71.4961 91.5703 71.5677 92.5273 71.7109 93.5039C71.8542 94.4805 72.0365 95.3659 72.2578 96.1602C72.4141 96.3294 72.7331 96.4596 73.2148 96.5508C73.6966 96.6289 74.1979 96.668 74.7188 96.668ZM86.5938 86.2383C86.2031 85.1185 86.0078 83.7969 86.0078 82.2734C86.3594 81.2969 86.9388 80.4766 87.7461 79.8125C88.5534 79.1484 89.569 78.8164 90.793 78.8164C91.5742 78.8164 92.2513 78.9792 92.8242 79.3047C93.3971 79.6172 93.918 80.099 94.3867 80.75C95.1029 81.7656 95.6562 83.1719 96.0469 84.9688C96.3854 86.5443 96.6654 88.3867 96.8867 90.4961C97.1211 92.5924 97.2383 94.5716 97.2383 96.4336L98 96.4531C98.5339 94.6562 98.9635 92.944 99.2891 91.3164C99.6146 89.6888 99.8555 87.7487 100.012 85.4961L97.707 85.0469C97.5117 84.3438 97.375 83.7383 97.2969 83.2305C97.2188 82.7096 97.1797 82.1562 97.1797 81.5703C97.1797 81.2318 97.4401 80.8477 97.9609 80.418C98.4818 79.9753 99.1523 79.6042 99.9727 79.3047C100.806 79.0052 101.665 78.8555 102.551 78.8555C105.897 78.8555 107.57 80.5417 107.57 83.9141C107.57 84.9948 107.336 86.1797 106.867 87.4688C107.622 90.0729 108.182 93.0677 108.547 96.4531L108.898 96.4727C109.432 95.2227 109.914 93.5299 110.344 91.3945C110.786 89.2461 111.008 87.2604 111.008 85.4375L109.094 85.0664C108.898 84.3633 108.762 83.7578 108.684 83.25C108.605 82.7292 108.566 82.1758 108.566 81.5898C108.566 81.2513 108.794 80.8672 109.25 80.4375C109.719 79.9948 110.337 79.6237 111.105 79.3242C111.874 79.0117 112.688 78.8555 113.547 78.8555C116.971 78.8555 118.684 80.6458 118.684 84.2266C118.684 86.4271 118.273 88.7122 117.453 91.082C116.633 93.4518 115.637 95.6133 114.465 97.5664C113.293 99.5195 112.186 101.036 111.145 102.117C110.493 102.299 109.79 102.391 109.035 102.391C108.137 102.391 107.264 102.267 106.418 102.02C105.585 101.785 104.908 101.44 104.387 100.984C104.296 100.672 104.133 99.8125 103.898 98.4062C103.56 96.4271 103.299 95.0013 103.117 94.1289H102.727C102.01 97.2539 100.956 99.8711 99.5625 101.98C98.8464 102.254 97.9284 102.391 96.8086 102.391C95.8581 102.391 94.9531 102.286 94.0938 102.078C93.2344 101.883 92.5898 101.59 92.1602 101.199C91.9909 100.001 91.6523 98.3737 91.1445 96.3164C90.6367 94.2591 90.0768 92.2995 89.4648 90.4375C88.8659 88.5755 88.3385 87.2604 87.8828 86.4922L86.5938 86.2383ZM120.09 76.4531C119.895 75.6589 119.764 75.0013 119.699 74.4805C119.634 73.9466 119.608 73.3346 119.621 72.6445C119.895 72.293 120.318 71.9414 120.891 71.5898C121.477 71.2253 122.154 70.9193 122.922 70.6719C123.703 70.4245 124.51 70.3008 125.344 70.3008C126.971 70.3008 128.221 70.7109 129.094 71.5312C129.966 72.3516 130.402 73.5625 130.402 75.1641C130.402 76.3099 130.305 78.1523 130.109 80.6914C129.914 83.2305 129.634 85.9323 129.27 88.7969C128.905 91.6484 128.488 94.1419 128.02 96.2773L128.059 96.3164L130.949 95.1055C131.965 95.9779 132.557 97.1367 132.727 98.582C132.727 98.6732 132.434 99.0508 131.848 99.7148C131.262 100.366 130.487 100.978 129.523 101.551C128.573 102.111 127.479 102.391 126.242 102.391C124.953 102.391 123.905 102.033 123.098 101.316C122.303 100.6 121.926 99.3763 121.965 97.6445L122.004 94.1289C122.017 90.7956 122.049 87.7943 122.102 85.125C122.167 82.4557 122.297 79.7018 122.492 76.8633L120.09 76.4531ZM134.309 90.6523C134.309 88.3997 134.686 86.388 135.441 84.6172C136.197 82.8464 137.362 81.4466 138.938 80.418C140.526 79.3763 142.505 78.8555 144.875 78.8555C146.112 78.8555 147.349 79.0052 148.586 79.3047C149.823 79.5911 150.871 80.0729 151.73 80.75C152.525 81.388 153.098 82.2344 153.449 83.2891C153.814 84.3307 153.996 85.4896 153.996 86.7656C153.996 87.612 153.924 88.4779 153.781 89.3633C153.625 89.6237 153.319 89.9688 152.863 90.3984C152.408 90.8151 151.874 91.2253 151.262 91.6289C150.65 92.0326 150.057 92.3451 149.484 92.5664C148.938 92.6055 148.371 92.625 147.785 92.625C146.757 92.625 145.715 92.5794 144.66 92.4883C143.605 92.3971 142.681 92.293 141.887 92.1758C141.991 93.2826 142.329 94.2461 142.902 95.0664C143.475 95.8867 144.387 96.2969 145.637 96.2969C145.754 96.2969 145.943 96.2839 146.203 96.2578C146.997 96.1797 147.922 95.9714 148.977 95.6328C150.044 95.2812 151.105 94.8776 152.16 94.4219C152.655 94.9167 153.02 95.4115 153.254 95.9062C153.488 96.401 153.651 97.1107 153.742 98.0352C153.339 98.5039 152.681 99.0768 151.77 99.7539C150.871 100.431 149.771 101.043 148.469 101.59C147.167 102.124 145.806 102.391 144.387 102.391C142.251 102.391 140.422 101.876 138.898 100.848C137.388 99.806 136.242 98.3997 135.461 96.6289C134.693 94.8451 134.309 92.8529 134.309 90.6523ZM146.887 86.1602C146.704 85.9648 146.398 85.8151 145.969 85.7109C145.539 85.5938 145.09 85.5352 144.621 85.5352C144.243 85.5352 143.859 85.5677 143.469 85.6328C143.091 85.6979 142.863 85.7695 142.785 85.8477C142.342 86.7201 142.062 87.7096 141.945 88.8164L147.16 88.3086L146.887 86.1602ZM156.672 90.7305C156.672 88.7513 156.945 86.8568 157.492 85.0469C158.052 83.237 158.924 81.7526 160.109 80.5938C161.307 79.4349 162.811 78.8555 164.621 78.8555C166.652 78.8555 168.592 79.5 170.441 80.7891L170.754 80.5938C170.715 79.0703 170.526 77.6901 170.188 76.4531L166.223 76.1992C166.04 75.9648 165.897 75.6198 165.793 75.1641C165.689 74.6953 165.637 74.2135 165.637 73.7188C165.637 73.0547 165.715 72.4818 165.871 72C166.652 71.4401 167.655 71.0169 168.879 70.7305C170.103 70.444 171.327 70.3008 172.551 70.3008C173.905 70.3008 174.927 70.5872 175.617 71.1602C176.307 71.7201 176.77 72.5729 177.004 73.7188C177.251 74.8516 177.375 76.4271 177.375 78.4453C177.375 81.1016 177.264 84.1159 177.043 87.4883C176.822 90.8607 176.535 93.6146 176.184 95.75L176.105 96.082L178.371 95.1055C178.749 95.5091 179.081 96.0039 179.367 96.5898C179.667 97.1628 179.855 97.8268 179.934 98.582C179.751 98.9727 179.354 99.474 178.742 100.086C178.13 100.685 177.382 101.219 176.496 101.688C175.611 102.156 174.686 102.391 173.723 102.391C172.642 102.391 171.809 102.072 171.223 101.434C170.65 100.783 170.363 99.9557 170.363 98.9531C170.363 98.6927 170.428 98.1589 170.559 97.3516C170.702 96.5443 170.819 95.9844 170.91 95.6719L170.324 95.4961C169.66 97.8268 168.781 99.5586 167.688 100.691C166.594 101.824 165.24 102.391 163.625 102.391C161.893 102.391 160.507 101.818 159.465 100.672C158.436 99.513 157.714 98.0612 157.297 96.3164C156.88 94.5716 156.672 92.7096 156.672 90.7305ZM170.07 90.3789C170.148 89.9102 170.188 89.3633 170.188 88.7383C170.188 88.3346 170.168 87.9505 170.129 87.5859C170.103 87.2214 170.07 86.9609 170.031 86.8047C169.51 86.4271 168.918 86.1602 168.254 86.0039C167.603 85.8477 167.004 85.7695 166.457 85.7695C166.118 85.7695 165.754 85.8021 165.363 85.8672C165.103 86.1276 164.895 86.694 164.738 87.5664C164.582 88.4258 164.504 89.3958 164.504 90.4766C164.504 91.6354 164.582 92.7617 164.738 93.8555C164.908 94.9362 165.142 95.7826 165.441 96.3945C165.65 96.3945 166.053 96.0755 166.652 95.4375C167.264 94.7865 167.896 93.9922 168.547 93.0547C169.198 92.1042 169.706 91.2122 170.07 90.3789ZM181.262 90.6523C181.262 88.3997 181.639 86.388 182.395 84.6172C183.15 82.8464 184.315 81.4466 185.891 80.418C187.479 79.3763 189.458 78.8555 191.828 78.8555C193.065 78.8555 194.302 79.0052 195.539 79.3047C196.776 79.5911 197.824 80.0729 198.684 80.75C199.478 81.388 200.051 82.2344 200.402 83.2891C200.767 84.3307 200.949 85.4896 200.949 86.7656C200.949 87.612 200.878 88.4779 200.734 89.3633C200.578 89.6237 200.272 89.9688 199.816 90.3984C199.361 90.8151 198.827 91.2253 198.215 91.6289C197.603 92.0326 197.01 92.3451 196.438 92.5664C195.891 92.6055 195.324 92.625 194.738 92.625C193.71 92.625 192.668 92.5794 191.613 92.4883C190.559 92.3971 189.634 92.293 188.84 92.1758C188.944 93.2826 189.283 94.2461 189.855 95.0664C190.428 95.8867 191.34 96.2969 192.59 96.2969C192.707 96.2969 192.896 96.2839 193.156 96.2578C193.951 96.1797 194.875 95.9714 195.93 95.6328C196.997 95.2812 198.059 94.8776 199.113 94.4219C199.608 94.9167 199.973 95.4115 200.207 95.9062C200.441 96.401 200.604 97.1107 200.695 98.0352C200.292 98.5039 199.634 99.0768 198.723 99.7539C197.824 100.431 196.724 101.043 195.422 101.59C194.12 102.124 192.759 102.391 191.34 102.391C189.204 102.391 187.375 101.876 185.852 100.848C184.341 99.806 183.195 98.3997 182.414 96.6289C181.646 94.8451 181.262 92.8529 181.262 90.6523ZM193.84 86.1602C193.658 85.9648 193.352 85.8151 192.922 85.7109C192.492 85.5938 192.043 85.5352 191.574 85.5352C191.197 85.5352 190.812 85.5677 190.422 85.6328C190.044 85.6979 189.816 85.7695 189.738 85.8477C189.296 86.7201 189.016 87.7096 188.898 88.8164L194.113 88.3086L193.84 86.1602ZM203.527 90.457C203.527 88.1003 203.905 86.056 204.66 84.3242C205.415 82.5924 206.574 81.2513 208.137 80.3008C209.699 79.3372 211.659 78.8555 214.016 78.8555C216.62 78.8555 218.664 79.3438 220.148 80.3203C221.633 81.2839 222.668 82.625 223.254 84.3438C223.853 86.0625 224.152 88.1654 224.152 90.6523C224.152 92.9049 223.755 94.9167 222.961 96.6875C222.18 98.4453 220.995 99.8385 219.406 100.867C217.831 101.883 215.897 102.391 213.605 102.391C210.064 102.391 207.499 101.303 205.91 99.1289C204.322 96.9414 203.527 94.0508 203.527 90.457ZM214.406 96.668C215.07 96.668 215.474 96.6159 215.617 96.5117C215.917 95.9909 216.145 95.2552 216.301 94.3047C216.457 93.3542 216.535 92.3255 216.535 91.2188C216.535 90.2031 216.47 89.2526 216.34 88.3672C216.21 87.4688 216.027 86.7656 215.793 86.2578C215.65 86.0885 215.363 85.9648 214.934 85.8867C214.504 85.7956 214.035 85.75 213.527 85.75C212.863 85.75 212.408 85.8216 212.16 85.9648C211.509 87.0846 211.184 88.6406 211.184 90.6328C211.184 91.5703 211.255 92.5273 211.398 93.5039C211.542 94.4805 211.724 95.3659 211.945 96.1602C212.102 96.3294 212.421 96.4596 212.902 96.5508C213.384 96.6289 213.885 96.668 214.406 96.668ZM228.645 95.2031C228.645 93.0807 228.671 91.4792 228.723 90.3984C228.775 89.3047 228.911 87.7031 229.133 85.5938L226.867 85.3008C226.594 84.4544 226.411 83.6992 226.32 83.0352C226.242 82.3711 226.203 81.5117 226.203 80.457C226.411 80.2747 226.757 80.0599 227.238 79.8125C227.733 79.5521 228.319 79.3307 228.996 79.1484C229.673 78.9531 230.357 78.8555 231.047 78.8555C232.622 78.8555 233.736 79.194 234.387 79.8711C235.051 80.5482 235.383 81.5638 235.383 82.918C235.383 83.6732 235.272 84.6953 235.051 85.9844C234.686 88.0547 234.504 89.1419 234.504 89.2461C234.504 89.3112 234.549 89.3763 234.641 89.4414C234.732 89.4935 234.829 89.5195 234.934 89.5195C235.051 89.5195 235.129 89.474 235.168 89.3828C235.689 87.3125 236.21 85.5807 236.73 84.1875C237.251 82.7943 238.039 81.5573 239.094 80.4766C240.148 79.3958 241.516 78.8555 243.195 78.8555C245.279 78.8555 246.776 79.4935 247.688 80.7695C248.599 82.0326 249.055 83.6276 249.055 85.5547C249.055 87.2734 248.853 88.9336 248.449 90.5352C248.046 92.1237 247.544 93.7839 246.945 95.5156C246.971 95.4505 246.88 95.7044 246.672 96.2773L246.711 96.3164L249.562 95.1445C250.578 96.0169 251.171 97.1758 251.34 98.6211C251.34 98.7122 251.047 99.0833 250.461 99.7344C249.888 100.385 249.126 100.991 248.176 101.551C247.225 102.111 246.132 102.391 244.895 102.391C243.658 102.391 242.648 102.059 241.867 101.395C241.086 100.73 240.695 99.5977 240.695 97.9961C240.695 96.7201 240.747 95.0143 240.852 92.8789C240.956 90.7435 241.06 89.0247 241.164 87.7227C240.826 87.3581 240.409 87.1628 239.914 87.1367C239.458 87.7227 238.788 88.8945 237.902 90.6523C237.017 92.4102 236.392 93.7253 236.027 94.5977C236.001 94.7799 235.988 94.9557 235.988 95.125C235.988 95.776 236.086 96.6549 236.281 97.7617C236.477 98.8555 236.717 99.8776 237.004 100.828C236.77 101.271 236.288 101.642 235.559 101.941C234.829 102.241 233.931 102.391 232.863 102.391C231.9 102.391 231.125 102.312 230.539 102.156C229.966 102 229.562 101.837 229.328 101.668C229.094 101.486 228.977 101.375 228.977 101.336C228.964 101.219 228.931 100.913 228.879 100.418C228.827 99.9102 228.775 99.207 228.723 98.3086C228.671 97.3971 228.645 96.362 228.645 95.2031Z" fill="#FDD501"/>
<path d="M11.6055 30.6016C10.668 26.7344 9.84115 23.4987 9.125 20.8945C8.40885 18.2773 7.83594 16.6497 7.40625 16.0117L5.45312 15.875C5.07552 14.8854 4.80859 13.668 4.65234 12.2227C4.8737 11.5065 5.29036 10.888 5.90234 10.3672C6.51432 9.83333 7.23047 9.42969 8.05078 9.15625C8.87109 8.88281 9.69792 8.74609 10.5312 8.74609C12.4323 8.74609 13.8516 9.61849 14.7891 11.3633C15.2188 12.1576 15.5833 13.1146 15.8828 14.2344C16.1823 15.3411 16.4622 16.6562 16.7227 18.1797C17.1523 20.7448 17.4518 23.0495 17.6211 25.0938C17.7904 27.125 17.9271 29.2865 18.0312 31.5781L18.1094 33.3359H18.4023C18.7279 32.6198 19.0859 31.0768 19.4766 28.707C19.8672 26.3372 20.2057 23.8307 20.4922 21.1875C20.7786 18.5312 20.9349 16.5586 20.9609 15.2695L18.5 14.8984C18.3177 14.2083 18.2005 13.5898 18.1484 13.043C18.0964 12.4961 18.0703 11.832 18.0703 11.0508C18.3438 10.7122 18.7995 10.3607 19.4375 9.99609C20.0755 9.63151 20.8177 9.32552 21.6641 9.07812C22.5104 8.83073 23.3503 8.70703 24.1836 8.70703C25.3034 8.70703 26.3125 8.89583 27.2109 9.27344C28.1224 9.63802 28.8451 10.1849 29.3789 10.9141C29.9258 11.6432 30.2057 12.5352 30.2188 13.5898V16.5977C30.8047 18.8763 31.3125 21.5521 31.7422 24.625C32.1849 27.6849 32.5104 30.582 32.7188 33.3164H32.9336C33.2461 32.5872 33.5977 31.0378 33.9883 28.668C34.3919 26.2852 34.7435 23.7786 35.043 21.1484C35.3424 18.5052 35.4987 16.5456 35.5117 15.2695L33.207 14.8984C33.0247 14.2083 32.9076 13.5898 32.8555 13.043C32.8034 12.4961 32.7773 11.832 32.7773 11.0508C33.0378 10.7122 33.4935 10.3607 34.1445 9.99609C34.7956 9.63151 35.5443 9.32552 36.3906 9.07812C37.25 8.83073 38.0964 8.70703 38.9297 8.70703C40.6354 8.70703 41.9115 9.14974 42.7578 10.0352C43.6042 10.9206 44.0273 12.2682 44.0273 14.0781C44.0273 15.7969 43.7409 18.0104 43.168 20.7188C42.5951 23.4271 41.8789 25.9727 41.0195 28.3555C40.2773 30.4388 39.5482 32.2422 38.832 33.7656C38.1159 35.276 37.2305 36.7604 36.1758 38.2188C35.7461 38.6615 35.1797 38.9674 34.4766 39.1367C33.7865 39.306 33.0703 39.3906 32.3281 39.3906C29.763 39.3906 27.8685 38.8958 26.6445 37.9062L27.1719 33.9023L25.9023 27.3203C25.6029 25.5885 25.4076 24.2083 25.3164 23.1797L25.0625 23.1602L25.0039 25.6406C24.5742 28.1927 24.0469 30.5625 23.4219 32.75C22.8099 34.9245 22.1068 36.7474 21.3125 38.2188C20.9349 38.6484 20.4141 38.9479 19.75 39.1172C19.0859 39.2995 18.4089 39.3906 17.7188 39.3906C15.0495 39.3906 13.168 38.9023 12.0742 37.9258L12.5039 34.2539L11.6055 30.6016ZM45.7461 27.6523C45.7461 25.3997 46.1237 23.388 46.8789 21.6172C47.6341 19.8464 48.7995 18.4466 50.375 17.418C51.9635 16.3763 53.9427 15.8555 56.3125 15.8555C57.5495 15.8555 58.7865 16.0052 60.0234 16.3047C61.2604 16.5911 62.3086 17.0729 63.168 17.75C63.9622 18.388 64.5352 19.2344 64.8867 20.2891C65.2513 21.3307 65.4336 22.4896 65.4336 23.7656C65.4336 24.612 65.362 25.4779 65.2188 26.3633C65.0625 26.6237 64.7565 26.9688 64.3008 27.3984C63.8451 27.8151 63.3112 28.2253 62.6992 28.6289C62.0872 29.0326 61.4948 29.3451 60.9219 29.5664C60.375 29.6055 59.8086 29.625 59.2227 29.625C58.194 29.625 57.1523 29.5794 56.0977 29.4883C55.043 29.3971 54.1185 29.293 53.3242 29.1758C53.4284 30.2826 53.7669 31.2461 54.3398 32.0664C54.9128 32.8867 55.8242 33.2969 57.0742 33.2969C57.1914 33.2969 57.3802 33.2839 57.6406 33.2578C58.4349 33.1797 59.3594 32.9714 60.4141 32.6328C61.4818 32.2812 62.543 31.8776 63.5977 31.4219C64.0924 31.9167 64.457 32.4115 64.6914 32.9062C64.9258 33.401 65.0885 34.1107 65.1797 35.0352C64.776 35.5039 64.1185 36.0768 63.207 36.7539C62.3086 37.431 61.2083 38.043 59.9062 38.5898C58.6042 39.1237 57.2435 39.3906 55.8242 39.3906C53.6888 39.3906 51.8594 38.8763 50.3359 37.8477C48.8255 36.806 47.6797 35.3997 46.8984 33.6289C46.1302 31.8451 45.7461 29.8529 45.7461 27.6523ZM58.3242 23.1602C58.1419 22.9648 57.8359 22.8151 57.4062 22.7109C56.9766 22.5938 56.5273 22.5352 56.0586 22.5352C55.681 22.5352 55.2969 22.5677 54.9062 22.6328C54.5286 22.6979 54.3008 22.7695 54.2227 22.8477C53.7799 23.7201 53.5 24.7096 53.3828 25.8164L58.5977 25.3086L58.3242 23.1602ZM67.5039 13.4531C67.3086 12.6589 67.1784 12.0013 67.1133 11.4805C67.0482 10.9466 67.0221 10.3346 67.0352 9.64453C67.3086 9.29297 67.7318 8.94141 68.3047 8.58984C68.8906 8.22526 69.5677 7.91927 70.3359 7.67188C71.1172 7.42448 71.9245 7.30078 72.7578 7.30078C74.3854 7.30078 75.6354 7.71094 76.5078 8.53125C77.3802 9.35156 77.8164 10.5625 77.8164 12.1641C77.8164 13.3099 77.7188 15.1523 77.5234 17.6914C77.3281 20.2305 77.0482 22.9323 76.6836 25.7969C76.319 28.6484 75.9023 31.1419 75.4336 33.2773L75.4727 33.3164L78.3633 32.1055C79.3789 32.9779 79.9714 34.1367 80.1406 35.582C80.1406 35.6732 79.8477 36.0508 79.2617 36.7148C78.6758 37.3659 77.901 37.9779 76.9375 38.5508C75.987 39.1107 74.8932 39.3906 73.6562 39.3906C72.3672 39.3906 71.319 39.0326 70.5117 38.3164C69.7174 37.6003 69.3398 36.3763 69.3789 34.6445L69.418 31.1289C69.431 27.7956 69.4635 24.7943 69.5156 22.125C69.5807 19.4557 69.7109 16.7018 69.9062 13.8633L67.5039 13.4531ZM81.6055 27.6523C81.6055 25.3997 81.9831 23.388 82.7383 21.6172C83.4935 19.8464 84.6589 18.4466 86.2344 17.418C87.8229 16.3763 89.8021 15.8555 92.1719 15.8555C92.9792 15.8555 93.9036 15.9076 94.9453 16.0117C96 16.1029 97.0091 16.2461 97.9727 16.4414L98.3633 16.7148C98.9492 17.1185 99.3789 17.444 99.6523 17.6914C99.9388 17.9258 100.238 18.2578 100.551 18.6875C100.551 19.3906 100.453 20.3607 100.258 21.5977C100.076 22.8216 99.8411 23.9609 99.5547 25.0156C99.2682 26.0703 98.9948 26.7474 98.7344 27.0469C98.3047 27.2682 97.6081 27.3789 96.6445 27.3789C96.1758 27.3789 95.7331 27.3464 95.3164 27.2812C94.9128 27.2031 94.6068 27.1055 94.3984 26.9883L93.9883 23.375C93.793 23.1536 93.3438 22.9779 92.6406 22.8477C91.9505 22.7044 91.3125 22.6328 90.7266 22.6328C90.5443 22.6328 90.375 22.6458 90.2188 22.6719C89.9193 23.2839 89.6914 24.0651 89.5352 25.0156C89.3789 25.9661 89.3008 26.9362 89.3008 27.9258C89.3008 29.3581 89.5352 30.5755 90.0039 31.5781C90.4727 32.5677 91.4297 33.0625 92.875 33.0625C93.5911 33.0625 94.2943 32.9453 94.9844 32.7109C95.6875 32.4766 96.5729 32.1185 97.6406 31.6367C98.0833 31.4284 98.4154 31.2786 98.6367 31.1875C99.1576 31.7083 99.5677 32.2552 99.8672 32.8281C100.167 33.401 100.362 34.1367 100.453 35.0352C99.6198 36.0117 98.4479 36.9818 96.9375 37.9453C95.4401 38.9089 93.6888 39.3906 91.6836 39.3906C89.5482 39.3906 87.7188 38.8763 86.1953 37.8477C84.6849 36.806 83.5391 35.3997 82.7578 33.6289C81.9896 31.8451 81.6055 29.8529 81.6055 27.6523ZM102.895 27.457C102.895 25.1003 103.272 23.056 104.027 21.3242C104.783 19.5924 105.941 18.2513 107.504 17.3008C109.066 16.3372 111.026 15.8555 113.383 15.8555C115.987 15.8555 118.031 16.3438 119.516 17.3203C121 18.2839 122.035 19.625 122.621 21.3438C123.22 23.0625 123.52 25.1654 123.52 27.6523C123.52 29.9049 123.122 31.9167 122.328 33.6875C121.547 35.4453 120.362 36.8385 118.773 37.8672C117.198 38.8828 115.264 39.3906 112.973 39.3906C109.431 39.3906 106.866 38.3034 105.277 36.1289C103.689 33.9414 102.895 31.0508 102.895 27.457ZM113.773 33.668C114.438 33.668 114.841 33.6159 114.984 33.5117C115.284 32.9909 115.512 32.2552 115.668 31.3047C115.824 30.3542 115.902 29.3255 115.902 28.2188C115.902 27.2031 115.837 26.2526 115.707 25.3672C115.577 24.4688 115.395 23.7656 115.16 23.2578C115.017 23.0885 114.73 22.9648 114.301 22.8867C113.871 22.7956 113.402 22.75 112.895 22.75C112.23 22.75 111.775 22.8216 111.527 22.9648C110.876 24.0846 110.551 25.6406 110.551 27.6328C110.551 28.5703 110.622 29.5273 110.766 30.5039C110.909 31.4805 111.091 32.3659 111.312 33.1602C111.469 33.3294 111.788 33.4596 112.27 33.5508C112.751 33.6289 113.253 33.668 113.773 33.668ZM127.992 32.2031C127.992 30.0807 128.018 28.4792 128.07 27.3984C128.122 26.3047 128.259 24.7031 128.48 22.5938L126.234 22.3008C125.961 21.4544 125.779 20.6992 125.688 20.0352C125.609 19.3711 125.57 18.5117 125.57 17.457C125.779 17.2747 126.124 17.0599 126.605 16.8125C127.1 16.5521 127.68 16.3307 128.344 16.1484C129.021 15.9531 129.704 15.8555 130.395 15.8555C131.97 15.8555 133.083 16.194 133.734 16.8711C134.398 17.5482 134.73 18.5638 134.73 19.918C134.73 20.6732 134.62 21.6953 134.398 22.9844C134.034 25.0547 133.852 26.1419 133.852 26.2461C133.852 26.3112 133.897 26.3763 133.988 26.4414C134.079 26.4935 134.177 26.5195 134.281 26.5195C134.398 26.5195 134.477 26.474 134.516 26.3828C134.503 26.4349 134.652 25.7773 134.965 24.4102C135.342 22.6133 135.727 21.1484 136.117 20.0156C136.521 18.8828 137.159 17.9128 138.031 17.1055C138.904 16.2982 140.089 15.8945 141.586 15.8945C143.435 15.8945 144.77 16.4284 145.59 17.4961C146.41 18.5508 146.82 19.957 146.82 21.7148C146.82 23.1081 146.586 24.6576 146.117 26.3633C146.117 26.4284 146.163 26.4935 146.254 26.5586C146.345 26.6107 146.443 26.6367 146.547 26.6367C146.664 26.6367 146.742 26.5911 146.781 26.5L147.055 25.4062C147.523 23.4792 147.986 21.8776 148.441 20.6016C148.91 19.3255 149.607 18.2253 150.531 17.3008C151.469 16.3633 152.686 15.8945 154.184 15.8945C156.15 15.8945 157.562 16.526 158.422 17.7891C159.294 19.0521 159.73 20.6406 159.73 22.5547C159.73 23.9089 159.6 25.2695 159.34 26.6367C159.092 28.0039 158.826 29.1497 158.539 30.0742C158.266 30.9987 157.927 32.0664 157.523 33.2773L157.562 33.3164L160.453 32.1055C161.469 32.9779 162.061 34.1367 162.23 35.582C162.23 35.6732 161.938 36.0508 161.352 36.7148C160.766 37.3659 159.991 37.9779 159.027 38.5508C158.077 39.1107 156.983 39.3906 155.746 39.3906C154.509 39.3906 153.5 39.0586 152.719 38.3945C151.938 37.7305 151.547 36.5977 151.547 34.9961C151.547 33.2122 151.579 31.3828 151.645 29.5078C151.723 27.6198 151.833 25.9271 151.977 24.4297C151.755 24.2474 151.449 24.1497 151.059 24.1367C150.668 24.5143 150.18 25.3411 149.594 26.6172C149.008 27.8802 148.467 29.2344 147.973 30.6797C147.478 32.112 147.165 33.2318 147.035 34.0391C147.217 35.3151 147.497 36.5781 147.875 37.8281C147.641 38.2708 147.159 38.6419 146.43 38.9414C145.701 39.2409 144.802 39.3906 143.734 39.3906C142.771 39.3906 142.016 39.3125 141.469 39.1562C140.922 39 140.544 38.8372 140.336 38.668C140.141 38.4987 140.043 38.388 140.043 38.3359C140.03 38.2188 139.997 37.9128 139.945 37.418C139.893 36.9102 139.841 36.207 139.789 35.3086C139.737 34.3971 139.711 33.362 139.711 32.2031C139.711 31.0964 139.796 29.7096 139.965 28.043C139.978 27.8346 140.017 27.3398 140.082 26.5586C140.147 25.7773 140.18 25.0677 140.18 24.4297C139.958 24.2474 139.652 24.1497 139.262 24.1367C139.04 24.306 138.422 25.3867 137.406 27.3789C136.391 29.3711 135.714 30.7773 135.375 31.5977C135.349 31.7799 135.336 31.9557 135.336 32.125C135.336 32.776 135.434 33.6549 135.629 34.7617C135.824 35.8555 136.065 36.8776 136.352 37.8281C136.117 38.2708 135.635 38.6419 134.906 38.9414C134.177 39.2409 133.279 39.3906 132.211 39.3906C131.247 39.3906 130.473 39.3125 129.887 39.1562C129.314 39 128.91 38.8372 128.676 38.668C128.441 38.4857 128.324 38.375 128.324 38.3359C128.311 38.2188 128.279 37.9128 128.227 37.418C128.174 36.9102 128.122 36.207 128.07 35.3086C128.018 34.3971 127.992 33.362 127.992 32.2031ZM163.48 27.6523C163.48 25.3997 163.858 23.388 164.613 21.6172C165.368 19.8464 166.534 18.4466 168.109 17.418C169.698 16.3763 171.677 15.8555 174.047 15.8555C175.284 15.8555 176.521 16.0052 177.758 16.3047C178.995 16.5911 180.043 17.0729 180.902 17.75C181.697 18.388 182.27 19.2344 182.621 20.2891C182.986 21.3307 183.168 22.4896 183.168 23.7656C183.168 24.612 183.096 25.4779 182.953 26.3633C182.797 26.6237 182.491 26.9688 182.035 27.3984C181.579 27.8151 181.046 28.2253 180.434 28.6289C179.822 29.0326 179.229 29.3451 178.656 29.5664C178.109 29.6055 177.543 29.625 176.957 29.625C175.928 29.625 174.887 29.5794 173.832 29.4883C172.777 29.3971 171.853 29.293 171.059 29.1758C171.163 30.2826 171.501 31.2461 172.074 32.0664C172.647 32.8867 173.559 33.2969 174.809 33.2969C174.926 33.2969 175.115 33.2839 175.375 33.2578C176.169 33.1797 177.094 32.9714 178.148 32.6328C179.216 32.2812 180.277 31.8776 181.332 31.4219C181.827 31.9167 182.191 32.4115 182.426 32.9062C182.66 33.401 182.823 34.1107 182.914 35.0352C182.51 35.5039 181.853 36.0768 180.941 36.7539C180.043 37.431 178.943 38.043 177.641 38.5898C176.339 39.1237 174.978 39.3906 173.559 39.3906C171.423 39.3906 169.594 38.8763 168.07 37.8477C166.56 36.806 165.414 35.3997 164.633 33.6289C163.865 31.8451 163.48 29.8529 163.48 27.6523ZM176.059 23.1602C175.876 22.9648 175.57 22.8151 175.141 22.7109C174.711 22.5938 174.262 22.5352 173.793 22.5352C173.415 22.5352 173.031 22.5677 172.641 22.6328C172.263 22.6979 172.035 22.7695 171.957 22.8477C171.514 23.7201 171.234 24.7096 171.117 25.8164L176.332 25.3086L176.059 23.1602ZM196.176 28.2188C196.176 26.0964 196.208 24.1628 196.273 22.418L194.145 22.0469C193.975 21.3958 193.858 20.8229 193.793 20.3281C193.728 19.8333 193.695 19.306 193.695 18.7461L193.734 18.3555C193.773 18.1732 193.793 18.0234 193.793 17.9062L196.625 17.2812C196.69 16.474 196.84 15.5625 197.074 14.5469C197.309 13.5312 197.556 12.7826 197.816 12.3008C198.233 11.9883 198.734 11.7539 199.32 11.5977C199.906 11.4414 200.538 11.3633 201.215 11.3633C201.788 11.3633 202.341 11.4219 202.875 11.5391C203.422 11.6432 203.897 11.7865 204.301 11.9688C204.34 12.4115 204.359 12.9193 204.359 13.4922C204.359 14.4297 204.314 15.4909 204.223 16.6758L207.66 16.0508C208.142 16.8841 208.383 17.7891 208.383 18.7656C208.383 19.4427 208.298 20.0547 208.129 20.6016C207.973 21.1484 207.751 21.7669 207.465 22.457C206.605 22.6003 205.427 22.6914 203.93 22.7305C203.747 24.8529 203.344 27.9714 202.719 32.0859L202.621 32.75L202.66 32.7891L207.25 31.3633C208.201 32.1576 208.78 33.3815 208.988 35.0352C208.988 35.1263 208.565 35.556 207.719 36.3242C206.885 37.0794 205.837 37.7826 204.574 38.4336C203.311 39.0716 201.938 39.3906 200.453 39.3906C197.862 39.3906 196.482 37.8086 196.312 34.6445C196.221 33.043 196.176 30.901 196.176 28.2188ZM210.316 27.457C210.316 25.1003 210.694 23.056 211.449 21.3242C212.204 19.5924 213.363 18.2513 214.926 17.3008C216.488 16.3372 218.448 15.8555 220.805 15.8555C223.409 15.8555 225.453 16.3438 226.938 17.3203C228.422 18.2839 229.457 19.625 230.043 21.3438C230.642 23.0625 230.941 25.1654 230.941 27.6523C230.941 29.9049 230.544 31.9167 229.75 33.6875C228.969 35.4453 227.784 36.8385 226.195 37.8672C224.62 38.8828 222.686 39.3906 220.395 39.3906C216.853 39.3906 214.288 38.3034 212.699 36.1289C211.111 33.9414 210.316 31.0508 210.316 27.457ZM221.195 33.668C221.859 33.668 222.263 33.6159 222.406 33.5117C222.706 32.9909 222.934 32.2552 223.09 31.3047C223.246 30.3542 223.324 29.3255 223.324 28.2188C223.324 27.2031 223.259 26.2526 223.129 25.3672C222.999 24.4688 222.816 23.7656 222.582 23.2578C222.439 23.0885 222.152 22.9648 221.723 22.8867C221.293 22.7956 220.824 22.75 220.316 22.75C219.652 22.75 219.197 22.8216 218.949 22.9648C218.298 24.0846 217.973 25.6406 217.973 27.6328C217.973 28.5703 218.044 29.5273 218.188 30.5039C218.331 31.4805 218.513 32.3659 218.734 33.1602C218.891 33.3294 219.21 33.4596 219.691 33.5508C220.173 33.6289 220.674 33.668 221.195 33.668ZM235.941 31.4023C236.579 31.2461 237.23 31.168 237.895 31.168C238.806 31.168 239.659 31.3177 240.453 31.6172C241.26 31.9167 241.931 32.3659 242.465 32.9648C243.012 33.5638 243.357 34.293 243.5 35.1523C243.044 36.207 242.361 37.3789 241.449 38.668C240.551 39.944 239.568 41.1419 238.5 42.2617C237.432 43.3815 236.443 44.2539 235.531 44.8789L232.602 43.0234L235.941 31.4023Z" fill="#FDD501"/>
</svg>
