<svg width="273" height="273" viewBox="0 0 273 273" fill="none" xmlns="http://www.w3.org/2000/svg">
<path d="M129.968 259.936C58.327 259.936 0 201.609 0 129.968C0 58.327 58.327 0 129.968 0C201.609 0 259.936 58.327 259.936 129.968C259.936 201.609 201.609 259.936 129.968 259.936ZM129.968 19.0197C68.7245 19.0197 19.0197 68.8513 19.0197 129.968C19.0197 191.084 68.7245 240.916 129.968 240.916C191.211 240.916 240.916 191.084 240.916 129.968C240.916 68.8513 191.211 19.0197 129.968 19.0197Z" fill="#292D32"/>
<path d="M263.111 272.615C260.702 272.615 258.293 271.727 256.391 269.825L231.031 244.466C227.354 240.788 227.354 234.702 231.031 231.025C234.708 227.348 240.795 227.348 244.472 231.025L269.831 256.385C273.509 260.062 273.509 266.148 269.831 269.825C267.929 271.727 265.52 272.615 263.111 272.615Z" fill="#292D32"/>
</svg>
