<svg width="277" height="112" viewBox="0 0 277 112" fill="none" xmlns="http://www.w3.org/2000/svg">
<path d="M15.4414 91.3828C15.4414 85.2891 15.5586 81.1094 15.793 78.8438L13.5859 78.4531C13.2734 77.2552 13.1172 75.9661 13.1172 74.5859C13.3125 74.3385 13.6771 74.0326 14.2109 73.668C14.7448 73.3034 15.3633 72.9844 16.0664 72.7109C16.7826 72.4375 17.4922 72.3008 18.1953 72.3008C19.9401 72.3008 21.2943 72.6784 22.2578 73.4336C23.2344 74.1888 23.7227 75.4779 23.7227 77.3008C23.7227 78.2122 23.6576 79.612 23.5273 81.5C23.3971 83.375 23.1562 85.6536 22.8047 88.3359C22.4531 91.0182 21.9844 93.8177 21.3984 96.7344L21.7305 96.9297C22.7591 95.5104 23.7487 93.9479 24.6992 92.2422C25.6497 90.5234 26.4049 88.9284 26.9648 87.457L25.2852 87.0469C25.1289 86.1615 25.0508 85.1133 25.0508 83.9023V83.1992C25.5456 82.5742 26.2227 82.0273 27.082 81.5586C27.9544 81.0898 29.0352 80.8555 30.3242 80.8555C31.2487 80.8555 32.0495 81.0312 32.7266 81.3828C33.4036 81.7214 33.9245 82.1966 34.2891 82.8086C34.6536 83.4206 34.8359 84.1237 34.8359 84.918C34.8359 85.5169 34.7448 86.0833 34.5625 86.6172C34.3802 87.138 34.1068 87.6914 33.7422 88.2773C32.8047 89.7617 31.1706 91.8711 28.8398 94.6055C29.6211 95.6992 30.3828 96.6497 31.125 97.457C31.4115 97.3138 31.6784 97.125 31.9258 96.8906C32.1862 96.6562 32.5182 96.3177 32.9219 95.875L33.3516 95.4258L35.7539 97.2422C35.6628 99.5599 35.1615 101.331 34.25 102.555C33.3516 103.766 32.1602 104.371 30.6758 104.371C29.0482 104.371 27.8242 103.876 27.0039 102.887C26.1836 101.897 25.5846 100.497 25.207 98.6875C23.7747 100.237 22.5117 101.539 21.418 102.594C20.3372 103.635 19.6276 104.234 19.2891 104.391C18.5729 104.391 17.8893 104.306 17.2383 104.137C16.5872 103.967 16.1055 103.701 15.793 103.336C15.6497 101.487 15.5521 99.6576 15.5 97.8477C15.4609 96.0247 15.4414 93.8698 15.4414 91.3828ZM39.6602 97.2031C39.6602 95.0807 39.6862 93.4792 39.7383 92.3984C39.7904 91.3047 39.9271 89.7031 40.1484 87.5938L37.8828 87.3008C37.6094 86.4544 37.4271 85.6992 37.3359 85.0352C37.2578 84.3711 37.2188 83.5117 37.2188 82.457C37.4271 82.2747 37.7721 82.0599 38.2539 81.8125C38.7487 81.5521 39.3346 81.3307 40.0117 81.1484C40.6888 80.9531 41.3724 80.8555 42.0625 80.8555C43.638 80.8555 44.7513 81.194 45.4023 81.8711C46.0664 82.5482 46.3984 83.5638 46.3984 84.918C46.3984 85.6732 46.2878 86.6953 46.0664 87.9844C45.7018 90.0547 45.5195 91.1419 45.5195 91.2461C45.5195 91.3112 45.5651 91.3763 45.6562 91.4414C45.7474 91.4935 45.8451 91.5195 45.9492 91.5195C46.0664 91.5195 46.1445 91.474 46.1836 91.3828C46.7044 89.3125 47.2253 87.5807 47.7461 86.1875C48.2669 84.7943 49.0547 83.5573 50.1094 82.4766C51.1641 81.3958 52.5312 80.8555 54.2109 80.8555C56.2943 80.8555 57.7917 81.4935 58.7031 82.7695C59.6146 84.0326 60.0703 85.6276 60.0703 87.5547C60.0703 89.2734 59.8685 90.9336 59.4648 92.5352C59.0612 94.1237 58.5599 95.7839 57.9609 97.5156C57.987 97.4505 57.8958 97.7044 57.6875 98.2773L57.7266 98.3164L60.5781 97.1445C61.5938 98.0169 62.1862 99.1758 62.3555 100.621C62.3555 100.712 62.0625 101.083 61.4766 101.734C60.9036 102.385 60.1419 102.991 59.1914 103.551C58.2409 104.111 57.1471 104.391 55.9102 104.391C54.6732 104.391 53.6641 104.059 52.8828 103.395C52.1016 102.73 51.7109 101.598 51.7109 99.9961C51.7109 98.7201 51.763 97.0143 51.8672 94.8789C51.9714 92.7435 52.0755 91.0247 52.1797 89.7227C51.8411 89.3581 51.4245 89.1628 50.9297 89.1367C50.474 89.7227 49.8034 90.8945 48.918 92.6523C48.0326 94.4102 47.4076 95.7253 47.043 96.5977C47.0169 96.7799 47.0039 96.9557 47.0039 97.125C47.0039 97.776 47.1016 98.6549 47.2969 99.7617C47.4922 100.855 47.7331 101.878 48.0195 102.828C47.7852 103.271 47.3034 103.642 46.5742 103.941C45.8451 104.241 44.9466 104.391 43.8789 104.391C42.9154 104.391 42.1406 104.312 41.5547 104.156C40.9818 104 40.5781 103.837 40.3438 103.668C40.1094 103.486 39.9922 103.375 39.9922 103.336C39.9792 103.219 39.9466 102.913 39.8945 102.418C39.8424 101.91 39.7904 101.207 39.7383 100.309C39.6862 99.3971 39.6602 98.362 39.6602 97.2031ZM63.8398 92.457C63.8398 90.1003 64.2174 88.056 64.9727 86.3242C65.7279 84.5924 66.8867 83.2513 68.4492 82.3008C70.0117 81.3372 71.9714 80.8555 74.3281 80.8555C76.9323 80.8555 78.9766 81.3438 80.4609 82.3203C81.9453 83.2839 82.9805 84.625 83.5664 86.3438C84.1654 88.0625 84.4648 90.1654 84.4648 92.6523C84.4648 94.9049 84.0677 96.9167 83.2734 98.6875C82.4922 100.445 81.3073 101.839 79.7188 102.867C78.1432 103.883 76.2096 104.391 73.918 104.391C70.3763 104.391 67.8112 103.303 66.2227 101.129C64.6341 98.9414 63.8398 96.0508 63.8398 92.457ZM74.7188 98.668C75.3828 98.668 75.7865 98.6159 75.9297 98.5117C76.2292 97.9909 76.457 97.2552 76.6133 96.3047C76.7695 95.3542 76.8477 94.3255 76.8477 93.2188C76.8477 92.2031 76.7826 91.2526 76.6523 90.3672C76.5221 89.4688 76.3398 88.7656 76.1055 88.2578C75.9622 88.0885 75.6758 87.9648 75.2461 87.8867C74.8164 87.7956 74.3477 87.75 73.8398 87.75C73.1758 87.75 72.7201 87.8216 72.4727 87.9648C71.8216 89.0846 71.4961 90.6406 71.4961 92.6328C71.4961 93.5703 71.5677 94.5273 71.7109 95.5039C71.8542 96.4805 72.0365 97.3659 72.2578 98.1602C72.4141 98.3294 72.7331 98.4596 73.2148 98.5508C73.6966 98.6289 74.1979 98.668 74.7188 98.668ZM86.5938 88.2383C86.2031 87.1185 86.0078 85.7969 86.0078 84.2734C86.3594 83.2969 86.9388 82.4766 87.7461 81.8125C88.5534 81.1484 89.569 80.8164 90.793 80.8164C91.5742 80.8164 92.2513 80.9792 92.8242 81.3047C93.3971 81.6172 93.918 82.099 94.3867 82.75C95.1029 83.7656 95.6562 85.1719 96.0469 86.9688C96.3854 88.5443 96.6654 90.3867 96.8867 92.4961C97.1211 94.5924 97.2383 96.5716 97.2383 98.4336L98 98.4531C98.5339 96.6562 98.9635 94.944 99.2891 93.3164C99.6146 91.6888 99.8555 89.7487 100.012 87.4961L97.707 87.0469C97.5117 86.3438 97.375 85.7383 97.2969 85.2305C97.2188 84.7096 97.1797 84.1562 97.1797 83.5703C97.1797 83.2318 97.4401 82.8477 97.9609 82.418C98.4818 81.9753 99.1523 81.6042 99.9727 81.3047C100.806 81.0052 101.665 80.8555 102.551 80.8555C105.897 80.8555 107.57 82.5417 107.57 85.9141C107.57 86.9948 107.336 88.1797 106.867 89.4688C107.622 92.0729 108.182 95.0677 108.547 98.4531L108.898 98.4727C109.432 97.2227 109.914 95.5299 110.344 93.3945C110.786 91.2461 111.008 89.2604 111.008 87.4375L109.094 87.0664C108.898 86.3633 108.762 85.7578 108.684 85.25C108.605 84.7292 108.566 84.1758 108.566 83.5898C108.566 83.2513 108.794 82.8672 109.25 82.4375C109.719 81.9948 110.337 81.6237 111.105 81.3242C111.874 81.0117 112.688 80.8555 113.547 80.8555C116.971 80.8555 118.684 82.6458 118.684 86.2266C118.684 88.4271 118.273 90.7122 117.453 93.082C116.633 95.4518 115.637 97.6133 114.465 99.5664C113.293 101.52 112.186 103.036 111.145 104.117C110.493 104.299 109.79 104.391 109.035 104.391C108.137 104.391 107.264 104.267 106.418 104.02C105.585 103.785 104.908 103.44 104.387 102.984C104.296 102.672 104.133 101.812 103.898 100.406C103.56 98.4271 103.299 97.0013 103.117 96.1289H102.727C102.01 99.2539 100.956 101.871 99.5625 103.98C98.8464 104.254 97.9284 104.391 96.8086 104.391C95.8581 104.391 94.9531 104.286 94.0938 104.078C93.2344 103.883 92.5898 103.59 92.1602 103.199C91.9909 102.001 91.6523 100.374 91.1445 98.3164C90.6367 96.2591 90.0768 94.2995 89.4648 92.4375C88.8659 90.5755 88.3385 89.2604 87.8828 88.4922L86.5938 88.2383ZM120.09 78.4531C119.895 77.6589 119.764 77.0013 119.699 76.4805C119.634 75.9466 119.608 75.3346 119.621 74.6445C119.895 74.293 120.318 73.9414 120.891 73.5898C121.477 73.2253 122.154 72.9193 122.922 72.6719C123.703 72.4245 124.51 72.3008 125.344 72.3008C126.971 72.3008 128.221 72.7109 129.094 73.5312C129.966 74.3516 130.402 75.5625 130.402 77.1641C130.402 78.3099 130.305 80.1523 130.109 82.6914C129.914 85.2305 129.634 87.9323 129.27 90.7969C128.905 93.6484 128.488 96.1419 128.02 98.2773L128.059 98.3164L130.949 97.1055C131.965 97.9779 132.557 99.1367 132.727 100.582C132.727 100.673 132.434 101.051 131.848 101.715C131.262 102.366 130.487 102.978 129.523 103.551C128.573 104.111 127.479 104.391 126.242 104.391C124.953 104.391 123.905 104.033 123.098 103.316C122.303 102.6 121.926 101.376 121.965 99.6445L122.004 96.1289C122.017 92.7956 122.049 89.7943 122.102 87.125C122.167 84.4557 122.297 81.7018 122.492 78.8633L120.09 78.4531ZM134.309 92.6523C134.309 90.3997 134.686 88.388 135.441 86.6172C136.197 84.8464 137.362 83.4466 138.938 82.418C140.526 81.3763 142.505 80.8555 144.875 80.8555C146.112 80.8555 147.349 81.0052 148.586 81.3047C149.823 81.5911 150.871 82.0729 151.73 82.75C152.525 83.388 153.098 84.2344 153.449 85.2891C153.814 86.3307 153.996 87.4896 153.996 88.7656C153.996 89.612 153.924 90.4779 153.781 91.3633C153.625 91.6237 153.319 91.9688 152.863 92.3984C152.408 92.8151 151.874 93.2253 151.262 93.6289C150.65 94.0326 150.057 94.3451 149.484 94.5664C148.938 94.6055 148.371 94.625 147.785 94.625C146.757 94.625 145.715 94.5794 144.66 94.4883C143.605 94.3971 142.681 94.293 141.887 94.1758C141.991 95.2826 142.329 96.2461 142.902 97.0664C143.475 97.8867 144.387 98.2969 145.637 98.2969C145.754 98.2969 145.943 98.2839 146.203 98.2578C146.997 98.1797 147.922 97.9714 148.977 97.6328C150.044 97.2812 151.105 96.8776 152.16 96.4219C152.655 96.9167 153.02 97.4115 153.254 97.9062C153.488 98.401 153.651 99.1107 153.742 100.035C153.339 100.504 152.681 101.077 151.77 101.754C150.871 102.431 149.771 103.043 148.469 103.59C147.167 104.124 145.806 104.391 144.387 104.391C142.251 104.391 140.422 103.876 138.898 102.848C137.388 101.806 136.242 100.4 135.461 98.6289C134.693 96.8451 134.309 94.8529 134.309 92.6523ZM146.887 88.1602C146.704 87.9648 146.398 87.8151 145.969 87.7109C145.539 87.5938 145.09 87.5352 144.621 87.5352C144.243 87.5352 143.859 87.5677 143.469 87.6328C143.091 87.6979 142.863 87.7695 142.785 87.8477C142.342 88.7201 142.062 89.7096 141.945 90.8164L147.16 90.3086L146.887 88.1602ZM156.672 92.7305C156.672 90.7513 156.945 88.8568 157.492 87.0469C158.052 85.237 158.924 83.7526 160.109 82.5938C161.307 81.4349 162.811 80.8555 164.621 80.8555C166.652 80.8555 168.592 81.5 170.441 82.7891L170.754 82.5938C170.715 81.0703 170.526 79.6901 170.188 78.4531L166.223 78.1992C166.04 77.9648 165.897 77.6198 165.793 77.1641C165.689 76.6953 165.637 76.2135 165.637 75.7188C165.637 75.0547 165.715 74.4818 165.871 74C166.652 73.4401 167.655 73.0169 168.879 72.7305C170.103 72.444 171.327 72.3008 172.551 72.3008C173.905 72.3008 174.927 72.5872 175.617 73.1602C176.307 73.7201 176.77 74.5729 177.004 75.7188C177.251 76.8516 177.375 78.4271 177.375 80.4453C177.375 83.1016 177.264 86.1159 177.043 89.4883C176.822 92.8607 176.535 95.6146 176.184 97.75L176.105 98.082L178.371 97.1055C178.749 97.5091 179.081 98.0039 179.367 98.5898C179.667 99.1628 179.855 99.8268 179.934 100.582C179.751 100.973 179.354 101.474 178.742 102.086C178.13 102.685 177.382 103.219 176.496 103.688C175.611 104.156 174.686 104.391 173.723 104.391C172.642 104.391 171.809 104.072 171.223 103.434C170.65 102.783 170.363 101.956 170.363 100.953C170.363 100.693 170.428 100.159 170.559 99.3516C170.702 98.5443 170.819 97.9844 170.91 97.6719L170.324 97.4961C169.66 99.8268 168.781 101.559 167.688 102.691C166.594 103.824 165.24 104.391 163.625 104.391C161.893 104.391 160.507 103.818 159.465 102.672C158.436 101.513 157.714 100.061 157.297 98.3164C156.88 96.5716 156.672 94.7096 156.672 92.7305ZM170.07 92.3789C170.148 91.9102 170.188 91.3633 170.188 90.7383C170.188 90.3346 170.168 89.9505 170.129 89.5859C170.103 89.2214 170.07 88.9609 170.031 88.8047C169.51 88.4271 168.918 88.1602 168.254 88.0039C167.603 87.8477 167.004 87.7695 166.457 87.7695C166.118 87.7695 165.754 87.8021 165.363 87.8672C165.103 88.1276 164.895 88.694 164.738 89.5664C164.582 90.4258 164.504 91.3958 164.504 92.4766C164.504 93.6354 164.582 94.7617 164.738 95.8555C164.908 96.9362 165.142 97.7826 165.441 98.3945C165.65 98.3945 166.053 98.0755 166.652 97.4375C167.264 96.7865 167.896 95.9922 168.547 95.0547C169.198 94.1042 169.706 93.2122 170.07 92.3789ZM181.262 92.6523C181.262 90.3997 181.639 88.388 182.395 86.6172C183.15 84.8464 184.315 83.4466 185.891 82.418C187.479 81.3763 189.458 80.8555 191.828 80.8555C193.065 80.8555 194.302 81.0052 195.539 81.3047C196.776 81.5911 197.824 82.0729 198.684 82.75C199.478 83.388 200.051 84.2344 200.402 85.2891C200.767 86.3307 200.949 87.4896 200.949 88.7656C200.949 89.612 200.878 90.4779 200.734 91.3633C200.578 91.6237 200.272 91.9688 199.816 92.3984C199.361 92.8151 198.827 93.2253 198.215 93.6289C197.603 94.0326 197.01 94.3451 196.438 94.5664C195.891 94.6055 195.324 94.625 194.738 94.625C193.71 94.625 192.668 94.5794 191.613 94.4883C190.559 94.3971 189.634 94.293 188.84 94.1758C188.944 95.2826 189.283 96.2461 189.855 97.0664C190.428 97.8867 191.34 98.2969 192.59 98.2969C192.707 98.2969 192.896 98.2839 193.156 98.2578C193.951 98.1797 194.875 97.9714 195.93 97.6328C196.997 97.2812 198.059 96.8776 199.113 96.4219C199.608 96.9167 199.973 97.4115 200.207 97.9062C200.441 98.401 200.604 99.1107 200.695 100.035C200.292 100.504 199.634 101.077 198.723 101.754C197.824 102.431 196.724 103.043 195.422 103.59C194.12 104.124 192.759 104.391 191.34 104.391C189.204 104.391 187.375 103.876 185.852 102.848C184.341 101.806 183.195 100.4 182.414 98.6289C181.646 96.8451 181.262 94.8529 181.262 92.6523ZM193.84 88.1602C193.658 87.9648 193.352 87.8151 192.922 87.7109C192.492 87.5938 192.043 87.5352 191.574 87.5352C191.197 87.5352 190.812 87.5677 190.422 87.6328C190.044 87.6979 189.816 87.7695 189.738 87.8477C189.296 88.7201 189.016 89.7096 188.898 90.8164L194.113 90.3086L193.84 88.1602ZM203.527 92.457C203.527 90.1003 203.905 88.056 204.66 86.3242C205.415 84.5924 206.574 83.2513 208.137 82.3008C209.699 81.3372 211.659 80.8555 214.016 80.8555C216.62 80.8555 218.664 81.3438 220.148 82.3203C221.633 83.2839 222.668 84.625 223.254 86.3438C223.853 88.0625 224.152 90.1654 224.152 92.6523C224.152 94.9049 223.755 96.9167 222.961 98.6875C222.18 100.445 220.995 101.839 219.406 102.867C217.831 103.883 215.897 104.391 213.605 104.391C210.064 104.391 207.499 103.303 205.91 101.129C204.322 98.9414 203.527 96.0508 203.527 92.457ZM214.406 98.668C215.07 98.668 215.474 98.6159 215.617 98.5117C215.917 97.9909 216.145 97.2552 216.301 96.3047C216.457 95.3542 216.535 94.3255 216.535 93.2188C216.535 92.2031 216.47 91.2526 216.34 90.3672C216.21 89.4688 216.027 88.7656 215.793 88.2578C215.65 88.0885 215.363 87.9648 214.934 87.8867C214.504 87.7956 214.035 87.75 213.527 87.75C212.863 87.75 212.408 87.8216 212.16 87.9648C211.509 89.0846 211.184 90.6406 211.184 92.6328C211.184 93.5703 211.255 94.5273 211.398 95.5039C211.542 96.4805 211.724 97.3659 211.945 98.1602C212.102 98.3294 212.421 98.4596 212.902 98.5508C213.384 98.6289 213.885 98.668 214.406 98.668ZM228.645 97.2031C228.645 95.0807 228.671 93.4792 228.723 92.3984C228.775 91.3047 228.911 89.7031 229.133 87.5938L226.867 87.3008C226.594 86.4544 226.411 85.6992 226.32 85.0352C226.242 84.3711 226.203 83.5117 226.203 82.457C226.411 82.2747 226.757 82.0599 227.238 81.8125C227.733 81.5521 228.319 81.3307 228.996 81.1484C229.673 80.9531 230.357 80.8555 231.047 80.8555C232.622 80.8555 233.736 81.194 234.387 81.8711C235.051 82.5482 235.383 83.5638 235.383 84.918C235.383 85.6732 235.272 86.6953 235.051 87.9844C234.686 90.0547 234.504 91.1419 234.504 91.2461C234.504 91.3112 234.549 91.3763 234.641 91.4414C234.732 91.4935 234.829 91.5195 234.934 91.5195C235.051 91.5195 235.129 91.474 235.168 91.3828C235.689 89.3125 236.21 87.5807 236.73 86.1875C237.251 84.7943 238.039 83.5573 239.094 82.4766C240.148 81.3958 241.516 80.8555 243.195 80.8555C245.279 80.8555 246.776 81.4935 247.688 82.7695C248.599 84.0326 249.055 85.6276 249.055 87.5547C249.055 89.2734 248.853 90.9336 248.449 92.5352C248.046 94.1237 247.544 95.7839 246.945 97.5156C246.971 97.4505 246.88 97.7044 246.672 98.2773L246.711 98.3164L249.562 97.1445C250.578 98.0169 251.171 99.1758 251.34 100.621C251.34 100.712 251.047 101.083 250.461 101.734C249.888 102.385 249.126 102.991 248.176 103.551C247.225 104.111 246.132 104.391 244.895 104.391C243.658 104.391 242.648 104.059 241.867 103.395C241.086 102.73 240.695 101.598 240.695 99.9961C240.695 98.7201 240.747 97.0143 240.852 94.8789C240.956 92.7435 241.06 91.0247 241.164 89.7227C240.826 89.3581 240.409 89.1628 239.914 89.1367C239.458 89.7227 238.788 90.8945 237.902 92.6523C237.017 94.4102 236.392 95.7253 236.027 96.5977C236.001 96.7799 235.988 96.9557 235.988 97.125C235.988 97.776 236.086 98.6549 236.281 99.7617C236.477 100.855 236.717 101.878 237.004 102.828C236.77 103.271 236.288 103.642 235.559 103.941C234.829 104.241 233.931 104.391 232.863 104.391C231.9 104.391 231.125 104.312 230.539 104.156C229.966 104 229.562 103.837 229.328 103.668C229.094 103.486 228.977 103.375 228.977 103.336C228.964 103.219 228.931 102.913 228.879 102.418C228.827 101.91 228.775 101.207 228.723 100.309C228.671 99.3971 228.645 98.362 228.645 97.2031Z" fill="#FDD501"/>
<path d="M11.6055 30.6016C10.668 26.7344 9.84115 23.4987 9.125 20.8945C8.40885 18.2773 7.83594 16.6497 7.40625 16.0117L5.45312 15.875C5.07552 14.8854 4.80859 13.668 4.65234 12.2227C4.8737 11.5065 5.29036 10.888 5.90234 10.3672C6.51432 9.83333 7.23047 9.42969 8.05078 9.15625C8.87109 8.88281 9.69792 8.74609 10.5312 8.74609C12.4323 8.74609 13.8516 9.61849 14.7891 11.3633C15.2188 12.1576 15.5833 13.1146 15.8828 14.2344C16.1823 15.3411 16.4622 16.6562 16.7227 18.1797C17.1523 20.7448 17.4518 23.0495 17.6211 25.0938C17.7904 27.125 17.9271 29.2865 18.0312 31.5781L18.1094 33.3359H18.4023C18.7279 32.6198 19.0859 31.0768 19.4766 28.707C19.8672 26.3372 20.2057 23.8307 20.4922 21.1875C20.7786 18.5312 20.9349 16.5586 20.9609 15.2695L18.5 14.8984C18.3177 14.2083 18.2005 13.5898 18.1484 13.043C18.0964 12.4961 18.0703 11.832 18.0703 11.0508C18.3438 10.7122 18.7995 10.3607 19.4375 9.99609C20.0755 9.63151 20.8177 9.32552 21.6641 9.07812C22.5104 8.83073 23.3503 8.70703 24.1836 8.70703C25.3034 8.70703 26.3125 8.89583 27.2109 9.27344C28.1224 9.63802 28.8451 10.1849 29.3789 10.9141C29.9258 11.6432 30.2057 12.5352 30.2188 13.5898V16.5977C30.8047 18.8763 31.3125 21.5521 31.7422 24.625C32.1849 27.6849 32.5104 30.582 32.7188 33.3164H32.9336C33.2461 32.5872 33.5977 31.0378 33.9883 28.668C34.3919 26.2852 34.7435 23.7786 35.043 21.1484C35.3424 18.5052 35.4987 16.5456 35.5117 15.2695L33.207 14.8984C33.0247 14.2083 32.9076 13.5898 32.8555 13.043C32.8034 12.4961 32.7773 11.832 32.7773 11.0508C33.0378 10.7122 33.4935 10.3607 34.1445 9.99609C34.7956 9.63151 35.5443 9.32552 36.3906 9.07812C37.25 8.83073 38.0964 8.70703 38.9297 8.70703C40.6354 8.70703 41.9115 9.14974 42.7578 10.0352C43.6042 10.9206 44.0273 12.2682 44.0273 14.0781C44.0273 15.7969 43.7409 18.0104 43.168 20.7188C42.5951 23.4271 41.8789 25.9727 41.0195 28.3555C40.2773 30.4388 39.5482 32.2422 38.832 33.7656C38.1159 35.276 37.2305 36.7604 36.1758 38.2188C35.7461 38.6615 35.1797 38.9674 34.4766 39.1367C33.7865 39.306 33.0703 39.3906 32.3281 39.3906C29.763 39.3906 27.8685 38.8958 26.6445 37.9062L27.1719 33.9023L25.9023 27.3203C25.6029 25.5885 25.4076 24.2083 25.3164 23.1797L25.0625 23.1602L25.0039 25.6406C24.5742 28.1927 24.0469 30.5625 23.4219 32.75C22.8099 34.9245 22.1068 36.7474 21.3125 38.2188C20.9349 38.6484 20.4141 38.9479 19.75 39.1172C19.0859 39.2995 18.4089 39.3906 17.7188 39.3906C15.0495 39.3906 13.168 38.9023 12.0742 37.9258L12.5039 34.2539L11.6055 30.6016ZM45.7461 27.6523C45.7461 25.3997 46.1237 23.388 46.8789 21.6172C47.6341 19.8464 48.7995 18.4466 50.375 17.418C51.9635 16.3763 53.9427 15.8555 56.3125 15.8555C57.5495 15.8555 58.7865 16.0052 60.0234 16.3047C61.2604 16.5911 62.3086 17.0729 63.168 17.75C63.9622 18.388 64.5352 19.2344 64.8867 20.2891C65.2513 21.3307 65.4336 22.4896 65.4336 23.7656C65.4336 24.612 65.362 25.4779 65.2188 26.3633C65.0625 26.6237 64.7565 26.9688 64.3008 27.3984C63.8451 27.8151 63.3112 28.2253 62.6992 28.6289C62.0872 29.0326 61.4948 29.3451 60.9219 29.5664C60.375 29.6055 59.8086 29.625 59.2227 29.625C58.194 29.625 57.1523 29.5794 56.0977 29.4883C55.043 29.3971 54.1185 29.293 53.3242 29.1758C53.4284 30.2826 53.7669 31.2461 54.3398 32.0664C54.9128 32.8867 55.8242 33.2969 57.0742 33.2969C57.1914 33.2969 57.3802 33.2839 57.6406 33.2578C58.4349 33.1797 59.3594 32.9714 60.4141 32.6328C61.4818 32.2812 62.543 31.8776 63.5977 31.4219C64.0924 31.9167 64.457 32.4115 64.6914 32.9062C64.9258 33.401 65.0885 34.1107 65.1797 35.0352C64.776 35.5039 64.1185 36.0768 63.207 36.7539C62.3086 37.431 61.2083 38.043 59.9062 38.5898C58.6042 39.1237 57.2435 39.3906 55.8242 39.3906C53.6888 39.3906 51.8594 38.8763 50.3359 37.8477C48.8255 36.806 47.6797 35.3997 46.8984 33.6289C46.1302 31.8451 45.7461 29.8529 45.7461 27.6523ZM58.3242 23.1602C58.1419 22.9648 57.8359 22.8151 57.4062 22.7109C56.9766 22.5938 56.5273 22.5352 56.0586 22.5352C55.681 22.5352 55.2969 22.5677 54.9062 22.6328C54.5286 22.6979 54.3008 22.7695 54.2227 22.8477C53.7799 23.7201 53.5 24.7096 53.3828 25.8164L58.5977 25.3086L58.3242 23.1602ZM67.5039 13.4531C67.3086 12.6589 67.1784 12.0013 67.1133 11.4805C67.0482 10.9466 67.0221 10.3346 67.0352 9.64453C67.3086 9.29297 67.7318 8.94141 68.3047 8.58984C68.8906 8.22526 69.5677 7.91927 70.3359 7.67188C71.1172 7.42448 71.9245 7.30078 72.7578 7.30078C74.3854 7.30078 75.6354 7.71094 76.5078 8.53125C77.3802 9.35156 77.8164 10.5625 77.8164 12.1641C77.8164 13.3099 77.7188 15.1523 77.5234 17.6914C77.3281 20.2305 77.0482 22.9323 76.6836 25.7969C76.319 28.6484 75.9023 31.1419 75.4336 33.2773L75.4727 33.3164L78.3633 32.1055C79.3789 32.9779 79.9714 34.1367 80.1406 35.582C80.1406 35.6732 79.8477 36.0508 79.2617 36.7148C78.6758 37.3659 77.901 37.9779 76.9375 38.5508C75.987 39.1107 74.8932 39.3906 73.6562 39.3906C72.3672 39.3906 71.319 39.0326 70.5117 38.3164C69.7174 37.6003 69.3398 36.3763 69.3789 34.6445L69.418 31.1289C69.431 27.7956 69.4635 24.7943 69.5156 22.125C69.5807 19.4557 69.7109 16.7018 69.9062 13.8633L67.5039 13.4531ZM81.6055 27.6523C81.6055 25.3997 81.9831 23.388 82.7383 21.6172C83.4935 19.8464 84.6589 18.4466 86.2344 17.418C87.8229 16.3763 89.8021 15.8555 92.1719 15.8555C92.9792 15.8555 93.9036 15.9076 94.9453 16.0117C96 16.1029 97.0091 16.2461 97.9727 16.4414L98.3633 16.7148C98.9492 17.1185 99.3789 17.444 99.6523 17.6914C99.9388 17.9258 100.238 18.2578 100.551 18.6875C100.551 19.3906 100.453 20.3607 100.258 21.5977C100.076 22.8216 99.8411 23.9609 99.5547 25.0156C99.2682 26.0703 98.9948 26.7474 98.7344 27.0469C98.3047 27.2682 97.6081 27.3789 96.6445 27.3789C96.1758 27.3789 95.7331 27.3464 95.3164 27.2812C94.9128 27.2031 94.6068 27.1055 94.3984 26.9883L93.9883 23.375C93.793 23.1536 93.3438 22.9779 92.6406 22.8477C91.9505 22.7044 91.3125 22.6328 90.7266 22.6328C90.5443 22.6328 90.375 22.6458 90.2188 22.6719C89.9193 23.2839 89.6914 24.0651 89.5352 25.0156C89.3789 25.9661 89.3008 26.9362 89.3008 27.9258C89.3008 29.3581 89.5352 30.5755 90.0039 31.5781C90.4727 32.5677 91.4297 33.0625 92.875 33.0625C93.5911 33.0625 94.2943 32.9453 94.9844 32.7109C95.6875 32.4766 96.5729 32.1185 97.6406 31.6367C98.0833 31.4284 98.4154 31.2786 98.6367 31.1875C99.1576 31.7083 99.5677 32.2552 99.8672 32.8281C100.167 33.401 100.362 34.1367 100.453 35.0352C99.6198 36.0117 98.4479 36.9818 96.9375 37.9453C95.4401 38.9089 93.6888 39.3906 91.6836 39.3906C89.5482 39.3906 87.7188 38.8763 86.1953 37.8477C84.6849 36.806 83.5391 35.3997 82.7578 33.6289C81.9896 31.8451 81.6055 29.8529 81.6055 27.6523ZM102.895 27.457C102.895 25.1003 103.272 23.056 104.027 21.3242C104.783 19.5924 105.941 18.2513 107.504 17.3008C109.066 16.3372 111.026 15.8555 113.383 15.8555C115.987 15.8555 118.031 16.3438 119.516 17.3203C121 18.2839 122.035 19.625 122.621 21.3438C123.22 23.0625 123.52 25.1654 123.52 27.6523C123.52 29.9049 123.122 31.9167 122.328 33.6875C121.547 35.4453 120.362 36.8385 118.773 37.8672C117.198 38.8828 115.264 39.3906 112.973 39.3906C109.431 39.3906 106.866 38.3034 105.277 36.1289C103.689 33.9414 102.895 31.0508 102.895 27.457ZM113.773 33.668C114.438 33.668 114.841 33.6159 114.984 33.5117C115.284 32.9909 115.512 32.2552 115.668 31.3047C115.824 30.3542 115.902 29.3255 115.902 28.2188C115.902 27.2031 115.837 26.2526 115.707 25.3672C115.577 24.4688 115.395 23.7656 115.16 23.2578C115.017 23.0885 114.73 22.9648 114.301 22.8867C113.871 22.7956 113.402 22.75 112.895 22.75C112.23 22.75 111.775 22.8216 111.527 22.9648C110.876 24.0846 110.551 25.6406 110.551 27.6328C110.551 28.5703 110.622 29.5273 110.766 30.5039C110.909 31.4805 111.091 32.3659 111.312 33.1602C111.469 33.3294 111.788 33.4596 112.27 33.5508C112.751 33.6289 113.253 33.668 113.773 33.668ZM127.992 32.2031C127.992 30.0807 128.018 28.4792 128.07 27.3984C128.122 26.3047 128.259 24.7031 128.48 22.5938L126.234 22.3008C125.961 21.4544 125.779 20.6992 125.688 20.0352C125.609 19.3711 125.57 18.5117 125.57 17.457C125.779 17.2747 126.124 17.0599 126.605 16.8125C127.1 16.5521 127.68 16.3307 128.344 16.1484C129.021 15.9531 129.704 15.8555 130.395 15.8555C131.97 15.8555 133.083 16.194 133.734 16.8711C134.398 17.5482 134.73 18.5638 134.73 19.918C134.73 20.6732 134.62 21.6953 134.398 22.9844C134.034 25.0547 133.852 26.1419 133.852 26.2461C133.852 26.3112 133.897 26.3763 133.988 26.4414C134.079 26.4935 134.177 26.5195 134.281 26.5195C134.398 26.5195 134.477 26.474 134.516 26.3828C134.503 26.4349 134.652 25.7773 134.965 24.4102C135.342 22.6133 135.727 21.1484 136.117 20.0156C136.521 18.8828 137.159 17.9128 138.031 17.1055C138.904 16.2982 140.089 15.8945 141.586 15.8945C143.435 15.8945 144.77 16.4284 145.59 17.4961C146.41 18.5508 146.82 19.957 146.82 21.7148C146.82 23.1081 146.586 24.6576 146.117 26.3633C146.117 26.4284 146.163 26.4935 146.254 26.5586C146.345 26.6107 146.443 26.6367 146.547 26.6367C146.664 26.6367 146.742 26.5911 146.781 26.5L147.055 25.4062C147.523 23.4792 147.986 21.8776 148.441 20.6016C148.91 19.3255 149.607 18.2253 150.531 17.3008C151.469 16.3633 152.686 15.8945 154.184 15.8945C156.15 15.8945 157.562 16.526 158.422 17.7891C159.294 19.0521 159.73 20.6406 159.73 22.5547C159.73 23.9089 159.6 25.2695 159.34 26.6367C159.092 28.0039 158.826 29.1497 158.539 30.0742C158.266 30.9987 157.927 32.0664 157.523 33.2773L157.562 33.3164L160.453 32.1055C161.469 32.9779 162.061 34.1367 162.23 35.582C162.23 35.6732 161.938 36.0508 161.352 36.7148C160.766 37.3659 159.991 37.9779 159.027 38.5508C158.077 39.1107 156.983 39.3906 155.746 39.3906C154.509 39.3906 153.5 39.0586 152.719 38.3945C151.938 37.7305 151.547 36.5977 151.547 34.9961C151.547 33.2122 151.579 31.3828 151.645 29.5078C151.723 27.6198 151.833 25.9271 151.977 24.4297C151.755 24.2474 151.449 24.1497 151.059 24.1367C150.668 24.5143 150.18 25.3411 149.594 26.6172C149.008 27.8802 148.467 29.2344 147.973 30.6797C147.478 32.112 147.165 33.2318 147.035 34.0391C147.217 35.3151 147.497 36.5781 147.875 37.8281C147.641 38.2708 147.159 38.6419 146.43 38.9414C145.701 39.2409 144.802 39.3906 143.734 39.3906C142.771 39.3906 142.016 39.3125 141.469 39.1562C140.922 39 140.544 38.8372 140.336 38.668C140.141 38.4987 140.043 38.388 140.043 38.3359C140.03 38.2188 139.997 37.9128 139.945 37.418C139.893 36.9102 139.841 36.207 139.789 35.3086C139.737 34.3971 139.711 33.362 139.711 32.2031C139.711 31.0964 139.796 29.7096 139.965 28.043C139.978 27.8346 140.017 27.3398 140.082 26.5586C140.147 25.7773 140.18 25.0677 140.18 24.4297C139.958 24.2474 139.652 24.1497 139.262 24.1367C139.04 24.306 138.422 25.3867 137.406 27.3789C136.391 29.3711 135.714 30.7773 135.375 31.5977C135.349 31.7799 135.336 31.9557 135.336 32.125C135.336 32.776 135.434 33.6549 135.629 34.7617C135.824 35.8555 136.065 36.8776 136.352 37.8281C136.117 38.2708 135.635 38.6419 134.906 38.9414C134.177 39.2409 133.279 39.3906 132.211 39.3906C131.247 39.3906 130.473 39.3125 129.887 39.1562C129.314 39 128.91 38.8372 128.676 38.668C128.441 38.4857 128.324 38.375 128.324 38.3359C128.311 38.2188 128.279 37.9128 128.227 37.418C128.174 36.9102 128.122 36.207 128.07 35.3086C128.018 34.3971 127.992 33.362 127.992 32.2031ZM163.48 27.6523C163.48 25.3997 163.858 23.388 164.613 21.6172C165.368 19.8464 166.534 18.4466 168.109 17.418C169.698 16.3763 171.677 15.8555 174.047 15.8555C175.284 15.8555 176.521 16.0052 177.758 16.3047C178.995 16.5911 180.043 17.0729 180.902 17.75C181.697 18.388 182.27 19.2344 182.621 20.2891C182.986 21.3307 183.168 22.4896 183.168 23.7656C183.168 24.612 183.096 25.4779 182.953 26.3633C182.797 26.6237 182.491 26.9688 182.035 27.3984C181.579 27.8151 181.046 28.2253 180.434 28.6289C179.822 29.0326 179.229 29.3451 178.656 29.5664C178.109 29.6055 177.543 29.625 176.957 29.625C175.928 29.625 174.887 29.5794 173.832 29.4883C172.777 29.3971 171.853 29.293 171.059 29.1758C171.163 30.2826 171.501 31.2461 172.074 32.0664C172.647 32.8867 173.559 33.2969 174.809 33.2969C174.926 33.2969 175.115 33.2839 175.375 33.2578C176.169 33.1797 177.094 32.9714 178.148 32.6328C179.216 32.2812 180.277 31.8776 181.332 31.4219C181.827 31.9167 182.191 32.4115 182.426 32.9062C182.66 33.401 182.823 34.1107 182.914 35.0352C182.51 35.5039 181.853 36.0768 180.941 36.7539C180.043 37.431 178.943 38.043 177.641 38.5898C176.339 39.1237 174.978 39.3906 173.559 39.3906C171.423 39.3906 169.594 38.8763 168.07 37.8477C166.56 36.806 165.414 35.3997 164.633 33.6289C163.865 31.8451 163.48 29.8529 163.48 27.6523ZM176.059 23.1602C175.876 22.9648 175.57 22.8151 175.141 22.7109C174.711 22.5938 174.262 22.5352 173.793 22.5352C173.415 22.5352 173.031 22.5677 172.641 22.6328C172.263 22.6979 172.035 22.7695 171.957 22.8477C171.514 23.7201 171.234 24.7096 171.117 25.8164L176.332 25.3086L176.059 23.1602ZM196.176 28.2188C196.176 26.0964 196.208 24.1628 196.273 22.418L194.145 22.0469C193.975 21.3958 193.858 20.8229 193.793 20.3281C193.728 19.8333 193.695 19.306 193.695 18.7461L193.734 18.3555C193.773 18.1732 193.793 18.0234 193.793 17.9062L196.625 17.2812C196.69 16.474 196.84 15.5625 197.074 14.5469C197.309 13.5312 197.556 12.7826 197.816 12.3008C198.233 11.9883 198.734 11.7539 199.32 11.5977C199.906 11.4414 200.538 11.3633 201.215 11.3633C201.788 11.3633 202.341 11.4219 202.875 11.5391C203.422 11.6432 203.897 11.7865 204.301 11.9688C204.34 12.4115 204.359 12.9193 204.359 13.4922C204.359 14.4297 204.314 15.4909 204.223 16.6758L207.66 16.0508C208.142 16.8841 208.383 17.7891 208.383 18.7656C208.383 19.4427 208.298 20.0547 208.129 20.6016C207.973 21.1484 207.751 21.7669 207.465 22.457C206.605 22.6003 205.427 22.6914 203.93 22.7305C203.747 24.8529 203.344 27.9714 202.719 32.0859L202.621 32.75L202.66 32.7891L207.25 31.3633C208.201 32.1576 208.78 33.3815 208.988 35.0352C208.988 35.1263 208.565 35.556 207.719 36.3242C206.885 37.0794 205.837 37.7826 204.574 38.4336C203.311 39.0716 201.938 39.3906 200.453 39.3906C197.862 39.3906 196.482 37.8086 196.312 34.6445C196.221 33.043 196.176 30.901 196.176 28.2188ZM210.316 27.457C210.316 25.1003 210.694 23.056 211.449 21.3242C212.204 19.5924 213.363 18.2513 214.926 17.3008C216.488 16.3372 218.448 15.8555 220.805 15.8555C223.409 15.8555 225.453 16.3438 226.938 17.3203C228.422 18.2839 229.457 19.625 230.043 21.3438C230.642 23.0625 230.941 25.1654 230.941 27.6523C230.941 29.9049 230.544 31.9167 229.75 33.6875C228.969 35.4453 227.784 36.8385 226.195 37.8672C224.62 38.8828 222.686 39.3906 220.395 39.3906C216.853 39.3906 214.288 38.3034 212.699 36.1289C211.111 33.9414 210.316 31.0508 210.316 27.457ZM221.195 33.668C221.859 33.668 222.263 33.6159 222.406 33.5117C222.706 32.9909 222.934 32.2552 223.09 31.3047C223.246 30.3542 223.324 29.3255 223.324 28.2188C223.324 27.2031 223.259 26.2526 223.129 25.3672C222.999 24.4688 222.816 23.7656 222.582 23.2578C222.439 23.0885 222.152 22.9648 221.723 22.8867C221.293 22.7956 220.824 22.75 220.316 22.75C219.652 22.75 219.197 22.8216 218.949 22.9648C218.298 24.0846 217.973 25.6406 217.973 27.6328C217.973 28.5703 218.044 29.5273 218.188 30.5039C218.331 31.4805 218.513 32.3659 218.734 33.1602C218.891 33.3294 219.21 33.4596 219.691 33.5508C220.173 33.6289 220.674 33.668 221.195 33.668ZM235.941 31.4023C236.579 31.2461 237.23 31.168 237.895 31.168C238.806 31.168 239.659 31.3177 240.453 31.6172C241.26 31.9167 241.931 32.3659 242.465 32.9648C243.012 33.5638 243.357 34.293 243.5 35.1523C243.044 36.207 242.361 37.3789 241.449 38.668C240.551 39.944 239.568 41.1419 238.5 42.2617C237.432 43.3815 236.443 44.2539 235.531 44.8789L232.602 43.0234L235.941 31.4023Z" fill="#FDD501"/>
</svg>
