<svg width="281" height="334" viewBox="0 0 281 334" fill="none" xmlns="http://www.w3.org/2000/svg">
<path d="M281 6L281 272C281 344.999 244.374 330 13.157 330L13.1571 199.518C13.1572 135.127 13.1572 74.1737 13.1571 49.0002C13.1571 35.601 23.1395 12.3498 58.9459 6.0001L281 6Z" fill="url(#paint0_linear_182_399)"/>
<g filter="url(#filter0_di_182_399)">
<path d="M252.385 0L252.385 236.337C252.385 301.196 218.42 287.87 4 287.87L4.0001 171.938C4.00018 114.728 4.00024 60.5715 4.00015 38.2051C4.00011 26.3001 13.2573 5.64168 46.4625 9.27823e-05L252.385 0Z" fill="white"/>
</g>
<g filter="url(#filter1_ddi_182_399)">
<path d="M98.2394 305.047C98.1684 304.331 97.8636 303.775 97.325 303.378C96.7864 302.982 96.0555 302.783 95.1322 302.783C94.5048 302.783 93.9751 302.872 93.5431 303.05C93.111 303.221 92.7796 303.461 92.5487 303.769C92.3238 304.077 92.2114 304.426 92.2114 304.816C92.1995 305.142 92.2676 305.426 92.4156 305.669C92.5695 305.911 92.7796 306.121 93.0459 306.299C93.3122 306.471 93.62 306.622 93.9692 306.752C94.3184 306.876 94.6913 306.983 95.0878 307.071L96.7213 307.462C97.5144 307.64 98.2424 307.876 98.9053 308.172C99.5682 308.468 100.142 308.832 100.628 309.264C101.113 309.696 101.489 310.205 101.755 310.791C102.027 311.377 102.166 312.049 102.172 312.806C102.166 313.919 101.882 314.884 101.32 315.701C100.764 316.511 99.9588 317.142 98.9053 317.592C97.8577 318.036 96.5941 318.257 95.1144 318.257C93.6466 318.257 92.3682 318.033 91.2792 317.583C90.1961 317.133 89.3498 316.467 88.7401 315.585C88.1365 314.697 87.8198 313.6 87.7902 312.292H91.51C91.5515 312.901 91.7261 313.41 92.0338 313.819C92.3475 314.221 92.7648 314.526 93.2856 314.733C93.8124 314.934 94.4072 315.035 95.07 315.035C95.7211 315.035 96.2863 314.94 96.7657 314.751C97.251 314.561 97.6269 314.298 97.8932 313.961C98.1595 313.623 98.2927 313.236 98.2927 312.798C98.2927 312.389 98.1714 312.046 97.9287 311.768C97.692 311.49 97.3428 311.253 96.8811 311.058C96.4254 310.862 95.8661 310.685 95.2032 310.525L93.2235 310.028C91.6905 309.655 90.4802 309.072 89.5924 308.279C88.7046 307.486 88.2637 306.417 88.2696 305.074C88.2637 303.973 88.5567 303.011 89.1485 302.189C89.7463 301.366 90.566 300.724 91.6077 300.262C92.6494 299.8 93.8331 299.57 95.1588 299.57C96.5083 299.57 97.6861 299.8 98.6922 300.262C99.7043 300.724 100.491 301.366 101.054 302.189C101.616 303.011 101.906 303.964 101.924 305.047H98.2394ZM104.758 318V299.818H117.009V302.988H108.602V307.32H116.379V310.489H108.602V314.831H117.045V318H104.758ZM127.345 299.818H131.145V312.496C131.145 313.668 130.882 314.686 130.355 315.55C129.834 316.414 129.109 317.08 128.18 317.547C127.251 318.015 126.171 318.249 124.94 318.249C123.845 318.249 122.85 318.056 121.957 317.672C121.069 317.281 120.364 316.689 119.844 315.896C119.323 315.097 119.065 314.094 119.071 312.886H122.898C122.909 313.366 123.007 313.777 123.191 314.12C123.38 314.458 123.637 314.718 123.963 314.902C124.294 315.079 124.685 315.168 125.135 315.168C125.608 315.168 126.008 315.067 126.333 314.866C126.665 314.659 126.916 314.357 127.088 313.961C127.26 313.564 127.345 313.076 127.345 312.496V299.818ZM137.457 318H133.338L139.615 299.818H144.568L150.836 318H146.717L142.163 303.973H142.021L137.457 318ZM137.2 310.853H146.93V313.854H137.2V310.853ZM153.025 318V299.818H160.198C161.571 299.818 162.743 300.064 163.714 300.555C164.69 301.04 165.433 301.73 165.942 302.624C166.457 303.511 166.714 304.556 166.714 305.757C166.714 306.965 166.454 308.004 165.933 308.874C165.412 309.738 164.658 310.401 163.669 310.862C162.687 311.324 161.497 311.555 160.1 311.555H155.297V308.465H159.479C160.213 308.465 160.822 308.365 161.308 308.163C161.793 307.962 162.154 307.66 162.391 307.258C162.633 306.855 162.755 306.355 162.755 305.757C162.755 305.154 162.633 304.645 162.391 304.23C162.154 303.816 161.79 303.502 161.299 303.289C160.813 303.07 160.201 302.961 159.461 302.961H156.869V318H153.025ZM162.843 309.726L167.362 318H163.119L158.698 309.726H162.843ZM172.565 318H168.445L174.722 299.818H179.676L185.944 318H181.824L177.27 303.973H177.128L172.565 318ZM172.307 310.853H182.037V313.854H172.307V310.853ZM188.132 318V299.818H191.976V307.32H199.78V299.818H203.615V318H199.78V310.489H191.976V318H188.132Z" fill="white"/>
</g>
<defs>
<filter id="filter0_di_182_399" x="0" y="0" width="256.385" height="297" filterUnits="userSpaceOnUse" color-interpolation-filters="sRGB">
<feFlood flood-opacity="0" result="BackgroundImageFix"/>
<feColorMatrix in="SourceAlpha" type="matrix" values="0 0 0 0 0 0 0 0 0 0 0 0 0 0 0 0 0 0 127 0" result="hardAlpha"/>
<feOffset dy="4"/>
<feGaussianBlur stdDeviation="2"/>
<feComposite in2="hardAlpha" operator="out"/>
<feColorMatrix type="matrix" values="0 0 0 0 0 0 0 0 0 0 0 0 0 0 0 0 0 0 0.25 0"/>
<feBlend mode="normal" in2="BackgroundImageFix" result="effect1_dropShadow_182_399"/>
<feBlend mode="normal" in="SourceGraphic" in2="effect1_dropShadow_182_399" result="shape"/>
<feColorMatrix in="SourceAlpha" type="matrix" values="0 0 0 0 0 0 0 0 0 0 0 0 0 0 0 0 0 0 127 0" result="hardAlpha"/>
<feOffset dy="4"/>
<feGaussianBlur stdDeviation="2"/>
<feComposite in2="hardAlpha" operator="arithmetic" k2="-1" k3="1"/>
<feColorMatrix type="matrix" values="0 0 0 0 0 0 0 0 0 0 0 0 0 0 0 0 0 0 0.25 0"/>
<feBlend mode="normal" in2="shape" result="effect2_innerShadow_182_399"/>
</filter>
<filter id="filter1_ddi_182_399" x="83.7903" y="299.57" width="123.825" height="26.6875" filterUnits="userSpaceOnUse" color-interpolation-filters="sRGB">
<feFlood flood-opacity="0" result="BackgroundImageFix"/>
<feColorMatrix in="SourceAlpha" type="matrix" values="0 0 0 0 0 0 0 0 0 0 0 0 0 0 0 0 0 0 127 0" result="hardAlpha"/>
<feOffset dy="4"/>
<feGaussianBlur stdDeviation="2"/>
<feComposite in2="hardAlpha" operator="out"/>
<feColorMatrix type="matrix" values="0 0 0 0 0 0 0 0 0 0 0 0 0 0 0 0 0 0 0.25 0"/>
<feBlend mode="normal" in2="BackgroundImageFix" result="effect1_dropShadow_182_399"/>
<feColorMatrix in="SourceAlpha" type="matrix" values="0 0 0 0 0 0 0 0 0 0 0 0 0 0 0 0 0 0 127 0" result="hardAlpha"/>
<feOffset dy="4"/>
<feGaussianBlur stdDeviation="2"/>
<feComposite in2="hardAlpha" operator="out"/>
<feColorMatrix type="matrix" values="0 0 0 0 0 0 0 0 0 0 0 0 0 0 0 0 0 0 0.25 0"/>
<feBlend mode="normal" in2="effect1_dropShadow_182_399" result="effect2_dropShadow_182_399"/>
<feBlend mode="normal" in="SourceGraphic" in2="effect2_dropShadow_182_399" result="shape"/>
<feColorMatrix in="SourceAlpha" type="matrix" values="0 0 0 0 0 0 0 0 0 0 0 0 0 0 0 0 0 0 127 0" result="hardAlpha"/>
<feOffset dy="4"/>
<feGaussianBlur stdDeviation="2"/>
<feComposite in2="hardAlpha" operator="arithmetic" k2="-1" k3="1"/>
<feColorMatrix type="matrix" values="0 0 0 0 0 0 0 0 0 0 0 0 0 0 0 0 0 0 0.25 0"/>
<feBlend mode="normal" in2="shape" result="effect3_innerShadow_182_399"/>
</filter>
<linearGradient id="paint0_linear_182_399" x1="147.078" y1="6" x2="147.078" y2="331.272" gradientUnits="userSpaceOnUse">
<stop offset="0.107292" stop-color="#FF89CA"/>
<stop offset="0.3625" stop-color="#FC7CF7" stop-opacity="0.7"/>
<stop offset="1" stop-color="#3D9BF1" stop-opacity="0.99"/>
</linearGradient>
</defs>
</svg>
