<svg width="281" height="334" viewBox="0 0 281 334" fill="none" xmlns="http://www.w3.org/2000/svg">
<path d="M281 6L281 272C281 344.999 244.374 330 13.157 330L13.1571 199.518C13.1572 135.127 13.1572 74.1737 13.1571 49.0002C13.1571 35.601 23.1395 12.3498 58.9459 6.0001L281 6Z" fill="url(#paint0_linear_182_412)"/>
<g filter="url(#filter0_di_182_412)">
<path d="M252.385 0L252.385 236.337C252.385 301.196 218.42 287.87 4 287.87L4.0001 171.938C4.00018 114.728 4.00024 60.5715 4.00015 38.2051C4.00011 26.3001 13.2573 5.64168 46.4625 9.27823e-05L252.385 0Z" fill="white"/>
</g>
<g filter="url(#filter1_ddi_182_412)">
<path d="M88.4738 305.047C88.4028 304.331 88.098 303.775 87.5594 303.378C87.0208 302.982 86.2899 302.783 85.3666 302.783C84.7392 302.783 84.2095 302.872 83.7774 303.05C83.3454 303.221 83.0139 303.461 82.7831 303.769C82.5582 304.077 82.4458 304.426 82.4458 304.816C82.4339 305.142 82.502 305.426 82.6499 305.669C82.8038 305.911 83.0139 306.121 83.2803 306.299C83.5466 306.471 83.8544 306.622 84.2036 306.752C84.5528 306.876 84.9256 306.983 85.3222 307.071L86.9557 307.462C87.7488 307.64 88.4768 307.876 89.1396 308.172C89.8025 308.468 90.3766 308.832 90.8619 309.264C91.3473 309.696 91.7231 310.205 91.9894 310.791C92.2617 311.377 92.4008 312.049 92.4067 312.806C92.4008 313.919 92.1167 314.884 91.5544 315.701C90.9981 316.511 90.1932 317.142 89.1396 317.592C88.0921 318.036 86.8285 318.257 85.3488 318.257C83.881 318.257 82.6026 318.033 81.5136 317.583C80.4305 317.133 79.5841 316.467 78.9745 315.585C78.3708 314.697 78.0542 313.6 78.0246 312.292H81.7444C81.7858 312.901 81.9604 313.41 82.2682 313.819C82.5819 314.221 82.9991 314.526 83.52 314.733C84.0467 314.934 84.6415 315.035 85.3044 315.035C85.9555 315.035 86.5207 314.94 87.0001 314.751C87.4854 314.561 87.8612 314.298 88.1276 313.961C88.3939 313.623 88.5271 313.236 88.5271 312.798C88.5271 312.389 88.4057 312.046 88.1631 311.768C87.9263 311.49 87.5771 311.253 87.1155 311.058C86.6598 310.862 86.1005 310.685 85.4376 310.525L83.4578 310.028C81.9249 309.655 80.7146 309.072 79.8268 308.279C78.939 307.486 78.4981 306.417 78.504 305.074C78.4981 303.973 78.791 303.011 79.3829 302.189C79.9807 301.366 80.8004 300.724 81.8421 300.262C82.8837 299.8 84.0674 299.57 85.3932 299.57C86.7426 299.57 87.9204 299.8 88.9266 300.262C89.9387 300.724 90.7258 301.366 91.2881 302.189C91.8503 303.011 92.1404 303.964 92.1581 305.047H88.4738ZM111.7 308.909C111.7 310.892 111.325 312.579 110.573 313.969C109.827 315.36 108.809 316.423 107.519 317.157C106.235 317.885 104.791 318.249 103.187 318.249C101.571 318.249 100.121 317.882 98.8365 317.148C97.5521 316.414 96.5371 315.351 95.7914 313.961C95.0456 312.57 94.6728 310.886 94.6728 308.909C94.6728 306.926 95.0456 305.24 95.7914 303.849C96.5371 302.458 97.5521 301.398 98.8365 300.67C100.121 299.937 101.571 299.57 103.187 299.57C104.791 299.57 106.235 299.937 107.519 300.67C108.809 301.398 109.827 302.458 110.573 303.849C111.325 305.24 111.7 306.926 111.7 308.909ZM107.803 308.909C107.803 307.625 107.611 306.542 107.226 305.66C106.847 304.778 106.312 304.109 105.619 303.653C104.927 303.198 104.116 302.97 103.187 302.97C102.257 302.97 101.447 303.198 100.754 303.653C100.062 304.109 99.523 304.778 99.1383 305.66C98.7595 306.542 98.5701 307.625 98.5701 308.909C98.5701 310.193 98.7595 311.277 99.1383 312.158C99.523 313.04 100.062 313.709 100.754 314.165C101.447 314.621 102.257 314.848 103.187 314.848C104.116 314.848 104.927 314.621 105.619 314.165C106.312 313.709 106.847 313.04 107.226 312.158C107.611 311.277 107.803 310.193 107.803 308.909ZM124.411 305.047C124.34 304.331 124.035 303.775 123.497 303.378C122.958 302.982 122.227 302.783 121.304 302.783C120.677 302.783 120.147 302.872 119.715 303.05C119.283 303.221 118.951 303.461 118.721 303.769C118.496 304.077 118.383 304.426 118.383 304.816C118.371 305.142 118.439 305.426 118.587 305.669C118.741 305.911 118.951 306.121 119.218 306.299C119.484 306.471 119.792 306.622 120.141 306.752C120.49 306.876 120.863 306.983 121.26 307.071L122.893 307.462C123.686 307.64 124.414 307.876 125.077 308.172C125.74 308.468 126.314 308.832 126.799 309.264C127.285 309.696 127.661 310.205 127.927 310.791C128.199 311.377 128.338 312.049 128.344 312.806C128.338 313.919 128.054 314.884 127.492 315.701C126.936 316.511 126.131 317.142 125.077 317.592C124.03 318.036 122.766 318.257 121.286 318.257C119.819 318.257 118.54 318.033 117.451 317.583C116.368 317.133 115.522 316.467 114.912 315.585C114.308 314.697 113.992 313.6 113.962 312.292H117.682C117.723 312.901 117.898 313.41 118.206 313.819C118.519 314.221 118.937 314.526 119.457 314.733C119.984 314.934 120.579 315.035 121.242 315.035C121.893 315.035 122.458 314.94 122.938 314.751C123.423 314.561 123.799 314.298 124.065 313.961C124.331 313.623 124.465 313.236 124.465 312.798C124.465 312.389 124.343 312.046 124.101 311.768C123.864 311.49 123.515 311.253 123.053 311.058C122.597 310.862 122.038 310.685 121.375 310.525L119.395 310.028C117.862 309.655 116.652 309.072 115.764 308.279C114.877 307.486 114.436 306.417 114.441 305.074C114.436 303.973 114.729 303.011 115.32 302.189C115.918 301.366 116.738 300.724 117.78 300.262C118.821 299.8 120.005 299.57 121.331 299.57C122.68 299.57 123.858 299.8 124.864 300.262C125.876 300.724 126.663 301.366 127.226 302.189C127.788 303.011 128.078 303.964 128.096 305.047H124.411ZM134.774 299.818V318H130.93V299.818H134.774ZM154.645 308.909C154.645 310.892 154.269 312.579 153.517 313.969C152.772 315.36 151.754 316.423 150.463 317.157C149.179 317.885 147.735 318.249 146.131 318.249C144.515 318.249 143.065 317.882 141.781 317.148C140.496 316.414 139.481 315.351 138.736 313.961C137.99 312.57 137.617 310.886 137.617 308.909C137.617 306.926 137.99 305.24 138.736 303.849C139.481 302.458 140.496 301.398 141.781 300.67C143.065 299.937 144.515 299.57 146.131 299.57C147.735 299.57 149.179 299.937 150.463 300.67C151.754 301.398 152.772 302.458 153.517 303.849C154.269 305.24 154.645 306.926 154.645 308.909ZM150.747 308.909C150.747 307.625 150.555 306.542 150.17 305.66C149.792 304.778 149.256 304.109 148.563 303.653C147.871 303.198 147.06 302.97 146.131 302.97C145.202 302.97 144.391 303.198 143.698 303.653C143.006 304.109 142.467 304.778 142.083 305.66C141.704 306.542 141.514 307.625 141.514 308.909C141.514 310.193 141.704 311.277 142.083 312.158C142.467 313.04 143.006 313.709 143.698 314.165C144.391 314.621 145.202 314.848 146.131 314.848C147.06 314.848 147.871 314.621 148.563 314.165C149.256 313.709 149.792 313.04 150.17 312.158C150.555 311.277 150.747 310.193 150.747 308.909ZM157.492 318V299.818H161.336V314.831H169.131V318H157.492ZM187.677 308.909C187.677 310.892 187.301 312.579 186.55 313.969C185.804 315.36 184.786 316.423 183.496 317.157C182.211 317.885 180.767 318.249 179.163 318.249C177.547 318.249 176.097 317.882 174.813 317.148C173.529 316.414 172.514 315.351 171.768 313.961C171.022 312.57 170.649 310.886 170.649 308.909C170.649 306.926 171.022 305.24 171.768 303.849C172.514 302.458 173.529 301.398 174.813 300.67C176.097 299.937 177.547 299.57 179.163 299.57C180.767 299.57 182.211 299.937 183.496 300.67C184.786 301.398 185.804 302.458 186.55 303.849C187.301 305.24 187.677 306.926 187.677 308.909ZM183.78 308.909C183.78 307.625 183.587 306.542 183.203 305.66C182.824 304.778 182.288 304.109 181.596 303.653C180.903 303.198 180.092 302.97 179.163 302.97C178.234 302.97 177.423 303.198 176.731 303.653C176.038 304.109 175.5 304.778 175.115 305.66C174.736 306.542 174.547 307.625 174.547 308.909C174.547 310.193 174.736 311.277 175.115 312.158C175.5 313.04 176.038 313.709 176.731 314.165C177.423 314.621 178.234 314.848 179.163 314.848C180.092 314.848 180.903 314.621 181.596 314.165C182.288 313.709 182.824 313.04 183.203 312.158C183.587 311.277 183.78 310.193 183.78 308.909ZM202.581 305.695C202.456 305.263 202.282 304.882 202.057 304.55C201.832 304.213 201.557 303.929 201.231 303.698C200.912 303.461 200.545 303.281 200.13 303.156C199.722 303.032 199.269 302.97 198.772 302.97C197.843 302.97 197.026 303.201 196.322 303.662C195.623 304.124 195.079 304.796 194.688 305.678C194.298 306.554 194.102 307.625 194.102 308.891C194.102 310.158 194.295 311.235 194.679 312.123C195.064 313.011 195.609 313.688 196.313 314.156C197.017 314.618 197.849 314.848 198.808 314.848C199.678 314.848 200.42 314.694 201.036 314.387C201.657 314.073 202.131 313.632 202.456 313.064C202.788 312.496 202.954 311.824 202.954 311.049L203.735 311.164H199.047V308.27H206.656V310.56C206.656 312.158 206.318 313.531 205.644 314.68C204.969 315.822 204.04 316.704 202.856 317.325C201.672 317.941 200.317 318.249 198.79 318.249C197.085 318.249 195.588 317.873 194.298 317.121C193.007 316.364 192.001 315.289 191.279 313.898C190.563 312.502 190.205 310.844 190.205 308.927C190.205 307.453 190.418 306.139 190.844 304.985C191.276 303.825 191.88 302.843 192.655 302.038C193.431 301.233 194.333 300.62 195.363 300.2C196.393 299.78 197.508 299.57 198.71 299.57C199.74 299.57 200.699 299.721 201.586 300.022C202.474 300.318 203.261 300.739 203.948 301.283C204.64 301.828 205.206 302.476 205.644 303.227C206.082 303.973 206.363 304.796 206.487 305.695H202.581ZM213.387 299.818V318H209.543V299.818H213.387Z" fill="white"/>
</g>
<defs>
<filter id="filter0_di_182_412" x="0" y="0" width="256.385" height="297" filterUnits="userSpaceOnUse" color-interpolation-filters="sRGB">
<feFlood flood-opacity="0" result="BackgroundImageFix"/>
<feColorMatrix in="SourceAlpha" type="matrix" values="0 0 0 0 0 0 0 0 0 0 0 0 0 0 0 0 0 0 127 0" result="hardAlpha"/>
<feOffset dy="4"/>
<feGaussianBlur stdDeviation="2"/>
<feComposite in2="hardAlpha" operator="out"/>
<feColorMatrix type="matrix" values="0 0 0 0 0 0 0 0 0 0 0 0 0 0 0 0 0 0 0.25 0"/>
<feBlend mode="normal" in2="BackgroundImageFix" result="effect1_dropShadow_182_412"/>
<feBlend mode="normal" in="SourceGraphic" in2="effect1_dropShadow_182_412" result="shape"/>
<feColorMatrix in="SourceAlpha" type="matrix" values="0 0 0 0 0 0 0 0 0 0 0 0 0 0 0 0 0 0 127 0" result="hardAlpha"/>
<feOffset dy="4"/>
<feGaussianBlur stdDeviation="2"/>
<feComposite in2="hardAlpha" operator="arithmetic" k2="-1" k3="1"/>
<feColorMatrix type="matrix" values="0 0 0 0 0 0 0 0 0 0 0 0 0 0 0 0 0 0 0.25 0"/>
<feBlend mode="normal" in2="shape" result="effect2_innerShadow_182_412"/>
</filter>
<filter id="filter1_ddi_182_412" x="74.0247" y="299.57" width="143.363" height="26.6875" filterUnits="userSpaceOnUse" color-interpolation-filters="sRGB">
<feFlood flood-opacity="0" result="BackgroundImageFix"/>
<feColorMatrix in="SourceAlpha" type="matrix" values="0 0 0 0 0 0 0 0 0 0 0 0 0 0 0 0 0 0 127 0" result="hardAlpha"/>
<feOffset dy="4"/>
<feGaussianBlur stdDeviation="2"/>
<feComposite in2="hardAlpha" operator="out"/>
<feColorMatrix type="matrix" values="0 0 0 0 0 0 0 0 0 0 0 0 0 0 0 0 0 0 0.25 0"/>
<feBlend mode="normal" in2="BackgroundImageFix" result="effect1_dropShadow_182_412"/>
<feColorMatrix in="SourceAlpha" type="matrix" values="0 0 0 0 0 0 0 0 0 0 0 0 0 0 0 0 0 0 127 0" result="hardAlpha"/>
<feOffset dy="4"/>
<feGaussianBlur stdDeviation="2"/>
<feComposite in2="hardAlpha" operator="out"/>
<feColorMatrix type="matrix" values="0 0 0 0 0 0 0 0 0 0 0 0 0 0 0 0 0 0 0.25 0"/>
<feBlend mode="normal" in2="effect1_dropShadow_182_412" result="effect2_dropShadow_182_412"/>
<feBlend mode="normal" in="SourceGraphic" in2="effect2_dropShadow_182_412" result="shape"/>
<feColorMatrix in="SourceAlpha" type="matrix" values="0 0 0 0 0 0 0 0 0 0 0 0 0 0 0 0 0 0 127 0" result="hardAlpha"/>
<feOffset dy="4"/>
<feGaussianBlur stdDeviation="2"/>
<feComposite in2="hardAlpha" operator="arithmetic" k2="-1" k3="1"/>
<feColorMatrix type="matrix" values="0 0 0 0 0 0 0 0 0 0 0 0 0 0 0 0 0 0 0.25 0"/>
<feBlend mode="normal" in2="shape" result="effect3_innerShadow_182_412"/>
</filter>
<linearGradient id="paint0_linear_182_412" x1="147.078" y1="6" x2="147.078" y2="331.272" gradientUnits="userSpaceOnUse">
<stop offset="0.107292" stop-color="#FF89CA"/>
<stop offset="0.3625" stop-color="#FC7CF7" stop-opacity="0.7"/>
<stop offset="1" stop-color="#3D9BF1" stop-opacity="0.99"/>
</linearGradient>
</defs>
</svg>
