<svg width="103" height="33" viewBox="0 0 103 33" fill="none" xmlns="http://www.w3.org/2000/svg">
<g clip-path="url(#clip0_136_532)" filter="url(#filter0_d_136_532)">
<path d="M99 23.748C99 24.4158 98.3256 25.0001 97.5548 25.0001H5.44523C4.67444 25.0001 4 24.4158 4 23.748V3.4225C4 2.75472 4.67444 2.17041 5.44523 2.17041H97.5548C98.3256 2.17041 99 2.71298 99 3.4225V23.748Z" fill="#F6F6F6"/>
<path d="M96.3504 16.778C96.3504 17.4875 95.7241 18.197 95.0015 18.4474L82.6207 22.1202C81.8499 22.3289 80.6455 22.3289 79.8747 22.1202L67.4939 18.4474C66.7231 18.2387 66.145 17.4875 66.145 16.778V1.25209C66.145 0.584307 66.8195 0 67.5903 0H94.9052C95.7241 0 96.3504 0.584307 96.3504 1.25209V16.778Z" fill="#5B859B"/>
<path d="M80.6937 13.8983C80.8382 14.0236 81.0309 14.107 81.2236 14.107C81.2718 14.107 81.2718 14.107 81.32 14.107C81.5127 14.107 81.7054 14.0236 81.8017 13.8983L85.7038 10.0169C85.9929 9.72472 85.9447 9.30736 85.6075 9.05694C85.2703 8.80653 84.8367 8.84826 84.5477 9.09868L81.9944 11.6446V4.75811C81.9944 4.38249 81.6572 4.09033 81.2236 4.09033C80.7901 4.09033 80.4528 4.38249 80.4528 4.75811V11.6863L77.8996 9.14041C77.7069 8.97347 77.466 8.89 77.2251 8.93173C76.9361 8.97347 76.7434 9.14042 76.6471 9.39083C76.5507 9.59951 76.5989 9.84993 76.7916 10.0586L80.6937 13.8983Z" fill="#F6F6F6"/>
<path d="M88.8833 15.8181C88.8833 16.2355 88.4497 16.5694 87.7753 16.5694H74.72C74.0456 16.5694 73.6602 16.2355 73.6602 15.8181C73.6602 15.4008 74.0456 15.0669 74.72 15.0669H87.7753C88.4497 15.1086 88.8833 15.4425 88.8833 15.8181Z" fill="#F6F6F6"/>
<path d="M22.2784 8.09091V9.51136H16.625V8.09091H22.2784ZM18.2727 5.47727H19.9489V15.875C19.9489 16.3485 20.0175 16.7036 20.1548 16.9403C20.2969 17.1723 20.4768 17.3286 20.6946 17.4091C20.9171 17.4848 21.1515 17.5227 21.3977 17.5227C21.5824 17.5227 21.7339 17.5133 21.8523 17.4943C21.9706 17.4706 22.0653 17.4517 22.1364 17.4375L22.4773 18.9432C22.3636 18.9858 22.205 19.0284 22.0014 19.071C21.7978 19.1184 21.5398 19.142 21.2273 19.142C20.7538 19.142 20.2898 19.0402 19.8352 18.8366C19.3854 18.633 19.0114 18.3229 18.7131 17.9062C18.4195 17.4896 18.2727 16.964 18.2727 16.3295V5.47727ZM28.0099 19.2557C27.3187 19.2557 26.6913 19.1255 26.1278 18.8651C25.5644 18.5999 25.117 18.2188 24.7855 17.7216C24.4541 17.2197 24.2884 16.6136 24.2884 15.9034C24.2884 15.2784 24.4115 14.7718 24.6577 14.3835C24.9039 13.9905 25.233 13.6828 25.6449 13.4602C26.0568 13.2377 26.5114 13.072 27.0085 12.9631C27.5104 12.8494 28.0147 12.7595 28.5213 12.6932C29.1842 12.608 29.7216 12.544 30.1335 12.5014C30.5502 12.4541 30.8532 12.3759 31.0426 12.267C31.2367 12.1581 31.3338 11.9687 31.3338 11.6989V11.642C31.3338 10.9413 31.142 10.3968 30.7585 10.0085C30.3797 9.62027 29.8045 9.42614 29.0327 9.42614C28.2325 9.42614 27.6051 9.60133 27.1506 9.9517C26.696 10.3021 26.3764 10.6761 26.1918 11.0739L24.6009 10.5057C24.8849 9.8428 25.2637 9.3267 25.7372 8.95739C26.2154 8.58333 26.7363 8.32292 27.2997 8.17614C27.8679 8.02462 28.4266 7.94886 28.9759 7.94886C29.3262 7.94886 29.7287 7.99148 30.1832 8.0767C30.6425 8.1572 31.0852 8.32528 31.5114 8.58097C31.9422 8.83665 32.2997 9.22254 32.5838 9.73864C32.8679 10.2547 33.0099 10.946 33.0099 11.8125V19H31.3338V17.5227H31.2486C31.1349 17.7595 30.9455 18.0128 30.6804 18.2827C30.4152 18.5526 30.0625 18.7822 29.6222 18.9716C29.1818 19.161 28.6444 19.2557 28.0099 19.2557ZM28.2656 17.75C28.9285 17.75 29.4872 17.6198 29.9418 17.3594C30.401 17.099 30.7467 16.7628 30.9787 16.3509C31.2154 15.9389 31.3338 15.5057 31.3338 15.0511V13.517C31.2628 13.6023 31.1065 13.6804 30.8651 13.7514C30.6283 13.8177 30.3537 13.8769 30.0412 13.929C29.7334 13.9763 29.4328 14.0189 29.1392 14.0568C28.8504 14.09 28.616 14.1184 28.4361 14.142C28.0005 14.1989 27.5933 14.2912 27.2145 14.419C26.8404 14.5421 26.5374 14.7292 26.3054 14.9801C26.0781 15.2263 25.9645 15.5625 25.9645 15.9886C25.9645 16.571 26.1799 17.0114 26.6108 17.3097C27.0464 17.6032 27.598 17.75 28.2656 17.75ZM43.7965 10.5341L42.2908 10.9602C42.1961 10.7093 42.0565 10.4654 41.8718 10.2287C41.6919 9.98722 41.4457 9.78835 41.1332 9.6321C40.8207 9.47585 40.4206 9.39773 39.9329 9.39773C39.2653 9.39773 38.7089 9.55161 38.2638 9.85938C37.8235 10.1624 37.6033 10.5483 37.6033 11.017C37.6033 11.4337 37.7549 11.7628 38.0579 12.0043C38.3609 12.2457 38.8344 12.447 39.4783 12.608L41.0977 13.0057C42.073 13.2424 42.7998 13.6046 43.2781 14.0923C43.7563 14.5753 43.9954 15.1979 43.9954 15.9602C43.9954 16.5852 43.8155 17.1439 43.4556 17.6364C43.1005 18.1288 42.6033 18.517 41.9641 18.8011C41.3249 19.0852 40.5816 19.2273 39.734 19.2273C38.6213 19.2273 37.7004 18.9858 36.9712 18.5028C36.2421 18.0199 35.7804 17.3144 35.5863 16.3864L37.1772 15.9886C37.3287 16.5758 37.6152 17.0161 38.0366 17.3097C38.4627 17.6032 39.0191 17.75 39.7056 17.75C40.4869 17.75 41.1071 17.5843 41.5664 17.2528C42.0304 16.9167 42.2624 16.5142 42.2624 16.0455C42.2624 15.6667 42.1299 15.3494 41.8647 15.0938C41.5996 14.8333 41.1924 14.6392 40.6431 14.5114L38.8249 14.0852C37.8259 13.8485 37.092 13.4815 36.6232 12.9844C36.1592 12.4825 35.9272 11.8551 35.9272 11.1023C35.9272 10.4867 36.1 9.94223 36.4457 9.46875C36.796 8.99527 37.2719 8.62358 37.8732 8.35369C38.4793 8.08381 39.1658 7.94886 39.9329 7.94886C41.0124 7.94886 41.86 8.18561 42.4755 8.65909C43.0958 9.13258 43.5361 9.75758 43.7965 10.5341ZM48.081 15.0227L48.0526 12.9489H48.3935L53.1662 8.09091H55.2401L50.1548 13.233H50.0128L48.081 15.0227ZM46.5185 19V4.45455H48.1946V19H46.5185ZM53.4503 19L49.1889 13.6023L50.3821 12.4375L55.581 19H53.4503Z" fill="black"/>
</g>
<defs>
<filter id="filter0_d_136_532" x="0" y="0" width="103" height="33" filterUnits="userSpaceOnUse" color-interpolation-filters="sRGB">
<feFlood flood-opacity="0" result="BackgroundImageFix"/>
<feColorMatrix in="SourceAlpha" type="matrix" values="0 0 0 0 0 0 0 0 0 0 0 0 0 0 0 0 0 0 127 0" result="hardAlpha"/>
<feOffset dy="4"/>
<feGaussianBlur stdDeviation="2"/>
<feComposite in2="hardAlpha" operator="out"/>
<feColorMatrix type="matrix" values="0 0 0 0 0 0 0 0 0 0 0 0 0 0 0 0 0 0 0.25 0"/>
<feBlend mode="normal" in2="BackgroundImageFix" result="effect1_dropShadow_136_532"/>
<feBlend mode="normal" in="SourceGraphic" in2="effect1_dropShadow_136_532" result="shape"/>
</filter>
<clipPath id="clip0_136_532">
<rect width="95" height="25" fill="white" transform="translate(4)"/>
</clipPath>
</defs>
</svg>
